<svg width="105" height="44" viewBox="0 0 105 44" fill="none" xmlns="http://www.w3.org/2000/svg">
<rect width="105" height="44" rx="12" fill="#F6F4FF"/>
<path d="M20.448 16.848L16.24 28H14.56L10.352 16.848H11.904L15.408 26.464L18.912 16.848H20.448ZM22.7965 17.808C22.5192 17.808 22.2845 17.712 22.0925 17.52C21.9005 17.328 21.8045 17.0933 21.8045 16.816C21.8045 16.5387 21.9005 16.304 22.0925 16.112C22.2845 15.92 22.5192 15.824 22.7965 15.824C23.0632 15.824 23.2872 15.92 23.4685 16.112C23.6605 16.304 23.7565 16.5387 23.7565 16.816C23.7565 17.0933 23.6605 17.328 23.4685 17.52C23.2872 17.712 23.0632 17.808 22.7965 17.808ZM23.5005 19.232V28H22.0445V19.232H23.5005ZM33.982 23.28C33.982 23.5573 33.966 23.8507 33.934 24.16H26.926C26.9793 25.024 27.2727 25.7013 27.806 26.192C28.35 26.672 29.006 26.912 29.774 26.912C30.4033 26.912 30.926 26.768 31.342 26.48C31.7687 26.1813 32.0673 25.7867 32.238 25.296H33.806C33.5713 26.1387 33.102 26.8267 32.398 27.36C31.694 27.8827 30.8193 28.144 29.774 28.144C28.942 28.144 28.1953 27.9573 27.534 27.584C26.8833 27.2107 26.3713 26.6827 25.998 26C25.6247 25.3067 25.438 24.5067 25.438 23.6C25.438 22.6933 25.6193 21.8987 25.982 21.216C26.3447 20.5333 26.8513 20.0107 27.502 19.648C28.1633 19.2747 28.9207 19.088 29.774 19.088C30.606 19.088 31.342 19.2693 31.982 19.632C32.622 19.9947 33.1127 20.496 33.454 21.136C33.806 21.7653 33.982 22.48 33.982 23.28ZM32.478 22.976C32.478 22.4213 32.3553 21.9467 32.11 21.552C31.8647 21.1467 31.5287 20.8427 31.102 20.64C30.686 20.4267 30.222 20.32 29.71 20.32C28.974 20.32 28.3447 20.5547 27.822 21.024C27.31 21.4933 27.0167 22.144 26.942 22.976H32.478ZM47.5839 19.232L44.8479 28H43.3439L41.2319 21.04L39.1199 28H37.6159L34.8639 19.232H36.3519L38.3679 26.592L40.5439 19.232H42.0319L44.1599 26.608L46.1439 19.232H47.5839ZM52.7505 23.584C52.7505 22.688 52.9318 21.904 53.2945 21.232C53.6572 20.5493 54.1532 20.0213 54.7825 19.648C55.4225 19.2747 56.1318 19.088 56.9105 19.088C57.6785 19.088 58.3452 19.2533 58.9105 19.584C59.4758 19.9147 59.8972 20.3307 60.1745 20.832V19.232H61.6465V28H60.1745V26.368C59.8865 26.88 59.4545 27.3067 58.8785 27.648C58.3132 27.9787 57.6518 28.144 56.8945 28.144C56.1158 28.144 55.4118 27.952 54.7825 27.568C54.1532 27.184 53.6572 26.6453 53.2945 25.952C52.9318 25.2587 52.7505 24.4693 52.7505 23.584ZM60.1745 23.6C60.1745 22.9387 60.0412 22.3627 59.7745 21.872C59.5078 21.3813 59.1452 21.008 58.6865 20.752C58.2385 20.4853 57.7425 20.352 57.1985 20.352C56.6545 20.352 56.1585 20.48 55.7105 20.736C55.2625 20.992 54.9052 21.3653 54.6385 21.856C54.3718 22.3467 54.2385 22.9227 54.2385 23.584C54.2385 24.256 54.3718 24.8427 54.6385 25.344C54.9052 25.8347 55.2625 26.2133 55.7105 26.48C56.1585 26.736 56.6545 26.864 57.1985 26.864C57.7425 26.864 58.2385 26.736 58.6865 26.48C59.1452 26.2133 59.5078 25.8347 59.7745 25.344C60.0412 24.8427 60.1745 24.2613 60.1745 23.6ZM65.563 16.16V28H64.107V16.16H65.563ZM69.5005 16.16V28H68.0445V16.16H69.5005Z" fill="#5243C2"/>
<g clip-path="url(#clip0_27648_526)">
<path d="M88.4767 21.1666L84.0067 16.6966L85.185 15.5183L91.6667 22L85.185 28.4816L84.0067 27.3033L88.4767 22.8333H78.3334V21.1666H88.4767Z" fill="#5243C2"/>
</g>
<defs>
<clipPath id="clip0_27648_526">
<rect width="20" height="20" fill="white" transform="translate(75 12)"/>
</clipPath>
</defs>
</svg>
