<svg width="320" height="18" viewBox="0 0 320 18" fill="none" xmlns="http://www.w3.org/2000/svg">
<g clip-path="url(#clip0_27663_492)">
<path d="M11.3333 3.66659H14C14.1768 3.66659 14.3464 3.73682 14.4714 3.86185C14.5964 3.98687 14.6666 4.15644 14.6666 4.33325V14.9999C14.6666 15.1767 14.5964 15.3463 14.4714 15.4713C14.3464 15.5963 14.1768 15.6666 14 15.6666H1.99998C1.82317 15.6666 1.6536 15.5963 1.52858 15.4713C1.40355 15.3463 1.33331 15.1767 1.33331 14.9999V4.33325C1.33331 4.15644 1.40355 3.98687 1.52858 3.86185C1.6536 3.73682 1.82317 3.66659 1.99998 3.66659H4.66665V2.33325H5.99998V3.66659H9.99998V2.33325H11.3333V3.66659ZM13.3333 8.99992H2.66665V14.3333H13.3333V8.99992ZM9.99998 4.99992H5.99998V6.33325H4.66665V4.99992H2.66665V7.66659H13.3333V4.99992H11.3333V6.33325H9.99998V4.99992ZM3.99998 10.3333H5.33331V11.6666H3.99998V10.3333ZM7.33331 10.3333H8.66665V11.6666H7.33331V10.3333ZM10.6666 10.3333H12V11.6666H10.6666V10.3333Z" fill="#878787"/>
</g>
<path d="M26.072 4.636V5.524H23.792V13H22.7V5.524H20.408V4.636H26.072ZM30.2842 13.108C29.6682 13.108 29.1082 12.968 28.6042 12.688C28.1082 12.408 27.7162 12.012 27.4282 11.5C27.1482 10.98 27.0082 10.38 27.0082 9.7C27.0082 9.028 27.1522 8.436 27.4402 7.924C27.7362 7.404 28.1362 7.008 28.6402 6.736C29.1442 6.456 29.7082 6.316 30.3322 6.316C30.9562 6.316 31.5202 6.456 32.0242 6.736C32.5282 7.008 32.9242 7.4 33.2122 7.912C33.5082 8.424 33.6562 9.02 33.6562 9.7C33.6562 10.38 33.5042 10.98 33.2002 11.5C32.9042 12.012 32.5002 12.408 31.9882 12.688C31.4762 12.968 30.9082 13.108 30.2842 13.108ZM30.2842 12.148C30.6762 12.148 31.0442 12.056 31.3882 11.872C31.7322 11.688 32.0082 11.412 32.2162 11.044C32.4322 10.676 32.5402 10.228 32.5402 9.7C32.5402 9.172 32.4362 8.724 32.2282 8.356C32.0202 7.988 31.7482 7.716 31.4122 7.54C31.0762 7.356 30.7122 7.264 30.3202 7.264C29.9202 7.264 29.5522 7.356 29.2162 7.54C28.8882 7.716 28.6242 7.988 28.4242 8.356C28.2242 8.724 28.1242 9.172 28.1242 9.7C28.1242 10.236 28.2202 10.688 28.4122 11.056C28.6122 11.424 28.8762 11.7 29.2042 11.884C29.5322 12.06 29.8922 12.148 30.2842 12.148ZM34.684 9.688C34.684 9.016 34.82 8.428 35.092 7.924C35.364 7.412 35.736 7.016 36.208 6.736C36.688 6.456 37.224 6.316 37.816 6.316C38.328 6.316 38.804 6.436 39.244 6.676C39.684 6.908 40.02 7.216 40.252 7.6V4.12H41.356V13H40.252V11.764C40.036 12.156 39.716 12.48 39.292 12.736C38.868 12.984 38.372 13.108 37.804 13.108C37.22 13.108 36.688 12.964 36.208 12.676C35.736 12.388 35.364 11.984 35.092 11.464C34.82 10.944 34.684 10.352 34.684 9.688ZM40.252 9.7C40.252 9.204 40.152 8.772 39.952 8.404C39.752 8.036 39.48 7.756 39.136 7.564C38.8 7.364 38.428 7.264 38.02 7.264C37.612 7.264 37.24 7.36 36.904 7.552C36.568 7.744 36.3 8.024 36.1 8.392C35.9 8.76 35.8 9.192 35.8 9.688C35.8 10.192 35.9 10.632 36.1 11.008C36.3 11.376 36.568 11.66 36.904 11.86C37.24 12.052 37.612 12.148 38.02 12.148C38.428 12.148 38.8 12.052 39.136 11.86C39.48 11.66 39.752 11.376 39.952 11.008C40.152 10.632 40.252 10.196 40.252 9.7ZM42.7933 9.688C42.7933 9.016 42.9293 8.428 43.2013 7.924C43.4733 7.412 43.8453 7.016 44.3173 6.736C44.7973 6.456 45.3293 6.316 45.9133 6.316C46.4893 6.316 46.9893 6.44 47.4133 6.688C47.8373 6.936 48.1533 7.248 48.3613 7.624V6.424H49.4653V13H48.3613V11.776C48.1453 12.16 47.8213 12.48 47.3893 12.736C46.9653 12.984 46.4693 13.108 45.9013 13.108C45.3173 13.108 44.7893 12.964 44.3173 12.676C43.8453 12.388 43.4733 11.984 43.2013 11.464C42.9293 10.944 42.7933 10.352 42.7933 9.688ZM48.3613 9.7C48.3613 9.204 48.2613 8.772 48.0613 8.404C47.8613 8.036 47.5893 7.756 47.2453 7.564C46.9093 7.364 46.5373 7.264 46.1293 7.264C45.7213 7.264 45.3493 7.36 45.0133 7.552C44.6773 7.744 44.4093 8.024 44.2093 8.392C44.0093 8.76 43.9093 9.192 43.9093 9.688C43.9093 10.192 44.0093 10.632 44.2093 11.008C44.4093 11.376 44.6773 11.66 45.0133 11.86C45.3493 12.052 45.7213 12.148 46.1293 12.148C46.5373 12.148 46.9093 12.052 47.2453 11.86C47.5893 11.66 47.8613 11.376 48.0613 11.008C48.2613 10.632 48.3613 10.196 48.3613 9.7ZM56.9747 6.424L53.0147 16.096H51.8867L53.1827 12.928L50.5307 6.424H51.7427L53.8067 11.752L55.8467 6.424H56.9747Z" fill="#878787"/>
<g clip-path="url(#clip1_27663_492)">
<path d="M84.6667 15.6667C84.6667 14.2523 85.2286 12.8957 86.2288 11.8955C87.229 10.8953 88.5855 10.3334 90 10.3334C91.4145 10.3334 92.7711 10.8953 93.7713 11.8955C94.7715 12.8957 95.3334 14.2523 95.3334 15.6667H94C94 14.6059 93.5786 13.5885 92.8284 12.8383C92.0783 12.0882 91.0609 11.6667 90 11.6667C88.9392 11.6667 87.9217 12.0882 87.1716 12.8383C86.4214 13.5885 86 14.6059 86 15.6667H84.6667ZM90 9.66675C87.79 9.66675 86 7.87675 86 5.66675C86 3.45675 87.79 1.66675 90 1.66675C92.21 1.66675 94 3.45675 94 5.66675C94 7.87675 92.21 9.66675 90 9.66675ZM90 8.33342C91.4734 8.33342 92.6667 7.14008 92.6667 5.66675C92.6667 4.19341 91.4734 3.00008 90 3.00008C88.5267 3.00008 87.3334 4.19341 87.3334 5.66675C87.3334 7.14008 88.5267 8.33342 90 8.33342Z" fill="#878787"/>
</g>
<path d="M111.408 4.696V13H110.316V6.808L107.556 13H106.788L104.016 6.796V13H102.924V4.696H104.1L107.172 11.56L110.244 4.696H111.408ZM112.852 9.688C112.852 9.016 112.988 8.428 113.26 7.924C113.532 7.412 113.904 7.016 114.376 6.736C114.856 6.456 115.388 6.316 115.972 6.316C116.548 6.316 117.048 6.44 117.472 6.688C117.896 6.936 118.212 7.248 118.42 7.624V6.424H119.524V13H118.42V11.776C118.204 12.16 117.88 12.48 117.448 12.736C117.024 12.984 116.528 13.108 115.96 13.108C115.376 13.108 114.848 12.964 114.376 12.676C113.904 12.388 113.532 11.984 113.26 11.464C112.988 10.944 112.852 10.352 112.852 9.688ZM118.42 9.7C118.42 9.204 118.32 8.772 118.12 8.404C117.92 8.036 117.648 7.756 117.304 7.564C116.968 7.364 116.596 7.264 116.188 7.264C115.78 7.264 115.408 7.36 115.072 7.552C114.736 7.744 114.468 8.024 114.268 8.392C114.068 8.76 113.968 9.192 113.968 9.688C113.968 10.192 114.068 10.632 114.268 11.008C114.468 11.376 114.736 11.66 115.072 11.86C115.408 12.052 115.78 12.148 116.188 12.148C116.596 12.148 116.968 12.052 117.304 11.86C117.648 11.66 117.92 11.376 118.12 11.008C118.32 10.632 118.42 10.196 118.42 9.7ZM122.461 7.492C122.653 7.116 122.925 6.824 123.277 6.616C123.637 6.408 124.073 6.304 124.585 6.304V7.432H124.297C123.073 7.432 122.461 8.096 122.461 9.424V13H121.369V6.424H122.461V7.492ZM126.41 5.356C126.202 5.356 126.026 5.284 125.882 5.14C125.738 4.996 125.666 4.82 125.666 4.612C125.666 4.404 125.738 4.228 125.882 4.084C126.026 3.94 126.202 3.868 126.41 3.868C126.61 3.868 126.778 3.94 126.914 4.084C127.058 4.228 127.13 4.404 127.13 4.612C127.13 4.82 127.058 4.996 126.914 5.14C126.778 5.284 126.61 5.356 126.41 5.356ZM126.938 6.424V13H125.846V6.424H126.938ZM128.391 9.688C128.391 9.016 128.527 8.428 128.799 7.924C129.071 7.412 129.443 7.016 129.915 6.736C130.395 6.456 130.927 6.316 131.511 6.316C132.087 6.316 132.587 6.44 133.011 6.688C133.435 6.936 133.751 7.248 133.959 7.624V6.424H135.063V13H133.959V11.776C133.743 12.16 133.419 12.48 132.987 12.736C132.563 12.984 132.067 13.108 131.499 13.108C130.915 13.108 130.387 12.964 129.915 12.676C129.443 12.388 129.071 11.984 128.799 11.464C128.527 10.944 128.391 10.352 128.391 9.688ZM133.959 9.7C133.959 9.204 133.859 8.772 133.659 8.404C133.459 8.036 133.187 7.756 132.843 7.564C132.507 7.364 132.135 7.264 131.727 7.264C131.319 7.264 130.947 7.36 130.611 7.552C130.275 7.744 130.007 8.024 129.807 8.392C129.607 8.76 129.507 9.192 129.507 9.688C129.507 10.192 129.607 10.632 129.807 11.008C130.007 11.376 130.275 11.66 130.611 11.86C130.947 12.052 131.319 12.148 131.727 12.148C132.135 12.148 132.507 12.052 132.843 11.86C133.187 11.66 133.459 11.376 133.659 11.008C133.859 10.632 133.959 10.196 133.959 9.7ZM145.7 7.084C145.7 7.78 145.46 8.36 144.98 8.824C144.508 9.28 143.784 9.508 142.808 9.508H141.2V13H140.108V4.636H142.808C143.752 4.636 144.468 4.864 144.956 5.32C145.452 5.776 145.7 6.364 145.7 7.084ZM142.808 8.608C143.416 8.608 143.864 8.476 144.152 8.212C144.44 7.948 144.584 7.572 144.584 7.084C144.584 6.052 143.992 5.536 142.808 5.536H141.2V8.608H142.808ZM150.321 6.304C150.817 6.304 151.265 6.412 151.665 6.628C152.065 6.836 152.377 7.152 152.601 7.576C152.833 8 152.949 8.516 152.949 9.124V13H151.869V9.28C151.869 8.624 151.705 8.124 151.377 7.78C151.049 7.428 150.601 7.252 150.033 7.252C149.457 7.252 148.997 7.432 148.653 7.792C148.317 8.152 148.149 8.676 148.149 9.364V13H147.057V4.12H148.149V7.36C148.365 7.024 148.661 6.764 149.037 6.58C149.421 6.396 149.849 6.304 150.321 6.304ZM155.297 5.356C155.089 5.356 154.913 5.284 154.769 5.14C154.625 4.996 154.553 4.82 154.553 4.612C154.553 4.404 154.625 4.228 154.769 4.084C154.913 3.94 155.089 3.868 155.297 3.868C155.497 3.868 155.665 3.94 155.801 4.084C155.945 4.228 156.017 4.404 156.017 4.612C156.017 4.82 155.945 4.996 155.801 5.14C155.665 5.284 155.497 5.356 155.297 5.356ZM155.825 6.424V13H154.733V6.424H155.825ZM158.778 4.12V13H157.686V4.12H158.778ZM161.203 5.356C160.995 5.356 160.819 5.284 160.675 5.14C160.531 4.996 160.459 4.82 160.459 4.612C160.459 4.404 160.531 4.228 160.675 4.084C160.819 3.94 160.995 3.868 161.203 3.868C161.403 3.868 161.571 3.94 161.707 4.084C161.851 4.228 161.923 4.404 161.923 4.612C161.923 4.82 161.851 4.996 161.707 5.14C161.571 5.284 161.403 5.356 161.203 5.356ZM161.731 6.424V13H160.639V6.424H161.731ZM164.684 7.636C164.9 7.26 165.22 6.948 165.644 6.7C166.076 6.444 166.576 6.316 167.144 6.316C167.728 6.316 168.256 6.456 168.728 6.736C169.208 7.016 169.584 7.412 169.856 7.924C170.128 8.428 170.264 9.016 170.264 9.688C170.264 10.352 170.128 10.944 169.856 11.464C169.584 11.984 169.208 12.388 168.728 12.676C168.256 12.964 167.728 13.108 167.144 13.108C166.584 13.108 166.088 12.984 165.656 12.736C165.232 12.48 164.908 12.164 164.684 11.788V16.12H163.592V6.424H164.684V7.636ZM169.148 9.688C169.148 9.192 169.048 8.76 168.848 8.392C168.648 8.024 168.376 7.744 168.032 7.552C167.696 7.36 167.324 7.264 166.916 7.264C166.516 7.264 166.144 7.364 165.8 7.564C165.464 7.756 165.192 8.04 164.984 8.416C164.784 8.784 164.684 9.212 164.684 9.7C164.684 10.196 164.784 10.632 164.984 11.008C165.192 11.376 165.464 11.66 165.8 11.86C166.144 12.052 166.516 12.148 166.916 12.148C167.324 12.148 167.696 12.052 168.032 11.86C168.376 11.66 168.648 11.376 168.848 11.008C169.048 10.632 169.148 10.192 169.148 9.688ZM174.029 13.108C173.525 13.108 173.073 13.024 172.673 12.856C172.273 12.68 171.957 12.44 171.725 12.136C171.493 11.824 171.365 11.468 171.341 11.068H172.469C172.501 11.396 172.653 11.664 172.925 11.872C173.205 12.08 173.569 12.184 174.017 12.184C174.433 12.184 174.761 12.092 175.001 11.908C175.241 11.724 175.361 11.492 175.361 11.212C175.361 10.924 175.233 10.712 174.977 10.576C174.721 10.432 174.325 10.292 173.789 10.156C173.301 10.028 172.901 9.9 172.589 9.772C172.285 9.636 172.021 9.44 171.797 9.184C171.581 8.92 171.473 8.576 171.473 8.152C171.473 7.816 171.573 7.508 171.773 7.228C171.973 6.948 172.257 6.728 172.625 6.568C172.993 6.4 173.413 6.316 173.885 6.316C174.613 6.316 175.201 6.5 175.649 6.868C176.097 7.236 176.337 7.74 176.369 8.38H175.277C175.253 8.036 175.113 7.76 174.857 7.552C174.609 7.344 174.273 7.24 173.849 7.24C173.457 7.24 173.145 7.324 172.913 7.492C172.681 7.66 172.565 7.88 172.565 8.152C172.565 8.368 172.633 8.548 172.769 8.692C172.913 8.828 173.089 8.94 173.297 9.028C173.513 9.108 173.809 9.2 174.185 9.304C174.657 9.432 175.041 9.56 175.337 9.688C175.633 9.808 175.885 9.992 176.093 10.24C176.309 10.488 176.421 10.812 176.429 11.212C176.429 11.572 176.329 11.896 176.129 12.184C175.929 12.472 175.645 12.7 175.277 12.868C174.917 13.028 174.501 13.108 174.029 13.108Z" fill="#878787"/>
<g clip-path="url(#clip2_27663_492)">
<path d="M206.861 14.8826L203.333 15.6666L204.117 12.1393C203.601 11.1735 203.332 10.095 203.333 8.99992C203.333 5.31792 206.318 2.33325 210 2.33325C213.682 2.33325 216.667 5.31792 216.667 8.99992C216.667 12.6819 213.682 15.6666 210 15.6666C208.905 15.6682 207.826 15.3989 206.861 14.8826ZM207.054 13.4739L207.489 13.7073C208.262 14.12 209.124 14.3351 210 14.3333C211.055 14.3333 212.086 14.0205 212.963 13.4344C213.84 12.8484 214.524 12.0154 214.927 11.0409C215.331 10.0664 215.437 8.994 215.231 7.95944C215.025 6.92487 214.517 5.97456 213.771 5.22868C213.025 4.4828 212.075 3.97485 211.04 3.76906C210.006 3.56328 208.934 3.66889 207.959 4.07256C206.984 4.47623 206.152 5.15982 205.565 6.03688C204.979 6.91394 204.667 7.94509 204.667 8.99992C204.667 9.88925 204.883 10.7453 205.293 11.5106L205.526 11.9459L205.089 13.9106L207.054 13.4739Z" fill="#878787"/>
</g>
<path d="M222.612 12.124C223.628 11.308 224.424 10.64 225 10.12C225.576 9.592 226.06 9.044 226.452 8.476C226.852 7.9 227.052 7.336 227.052 6.784C227.052 6.264 226.924 5.856 226.668 5.56C226.42 5.256 226.016 5.104 225.456 5.104C224.912 5.104 224.488 5.276 224.184 5.62C223.888 5.956 223.728 6.408 223.704 6.976H222.648C222.68 6.08 222.952 5.388 223.464 4.9C223.976 4.412 224.636 4.168 225.444 4.168C226.268 4.168 226.92 4.396 227.4 4.852C227.888 5.308 228.132 5.936 228.132 6.736C228.132 7.4 227.932 8.048 227.532 8.68C227.14 9.304 226.692 9.856 226.188 10.336C225.684 10.808 225.04 11.36 224.256 11.992H228.384V12.904H222.612V12.124Z" fill="#878787"/>
<defs>
<clipPath id="clip0_27663_492">
<rect width="16" height="16" fill="white" transform="translate(0 1)"/>
</clipPath>
<clipPath id="clip1_27663_492">
<rect width="16" height="16" fill="white" transform="translate(82 1)"/>
</clipPath>
<clipPath id="clip2_27663_492">
<rect width="16" height="16" fill="white" transform="translate(202 1)"/>
</clipPath>
</defs>
</svg>
