<svg width="320" height="18" viewBox="0 0 320 18" fill="none" xmlns="http://www.w3.org/2000/svg">
<g clip-path="url(#clip0_27663_572)">
<path d="M11.3334 3.66659H14C14.1769 3.66659 14.3464 3.73682 14.4714 3.86185C14.5965 3.98687 14.6667 4.15644 14.6667 4.33325V14.9999C14.6667 15.1767 14.5965 15.3463 14.4714 15.4713C14.3464 15.5963 14.1769 15.6666 14 15.6666H2.00004C1.82323 15.6666 1.65366 15.5963 1.52864 15.4713C1.40361 15.3463 1.33337 15.1767 1.33337 14.9999V4.33325C1.33337 4.15644 1.40361 3.98687 1.52864 3.86185C1.65366 3.73682 1.82323 3.66659 2.00004 3.66659H4.66671V2.33325H6.00004V3.66659H10V2.33325H11.3334V3.66659ZM13.3334 8.99992H2.66671V14.3333H13.3334V8.99992ZM10 4.99992H6.00004V6.33325H4.66671V4.99992H2.66671V7.66659H13.3334V4.99992H11.3334V6.33325H10V4.99992ZM4.00004 10.3333H5.33337V11.6666H4.00004V10.3333ZM7.33337 10.3333H8.66671V11.6666H7.33337V10.3333ZM10.6667 10.3333H12V11.6666H10.6667V10.3333Z" fill="#878787"/>
</g>
<path d="M26.072 4.636V5.524H23.792V13H22.7V5.524H20.408V4.636H26.072ZM30.2842 13.108C29.6682 13.108 29.1082 12.968 28.6042 12.688C28.1082 12.408 27.7162 12.012 27.4282 11.5C27.1482 10.98 27.0082 10.38 27.0082 9.7C27.0082 9.028 27.1522 8.436 27.4402 7.924C27.7362 7.404 28.1362 7.008 28.6402 6.736C29.1442 6.456 29.7082 6.316 30.3322 6.316C30.9562 6.316 31.5202 6.456 32.0242 6.736C32.5282 7.008 32.9242 7.4 33.2122 7.912C33.5082 8.424 33.6562 9.02 33.6562 9.7C33.6562 10.38 33.5042 10.98 33.2002 11.5C32.9042 12.012 32.5002 12.408 31.9882 12.688C31.4762 12.968 30.9082 13.108 30.2842 13.108ZM30.2842 12.148C30.6762 12.148 31.0442 12.056 31.3882 11.872C31.7322 11.688 32.0082 11.412 32.2162 11.044C32.4322 10.676 32.5402 10.228 32.5402 9.7C32.5402 9.172 32.4362 8.724 32.2282 8.356C32.0202 7.988 31.7482 7.716 31.4122 7.54C31.0762 7.356 30.7122 7.264 30.3202 7.264C29.9202 7.264 29.5522 7.356 29.2162 7.54C28.8882 7.716 28.6242 7.988 28.4242 8.356C28.2242 8.724 28.1242 9.172 28.1242 9.7C28.1242 10.236 28.2202 10.688 28.4122 11.056C28.6122 11.424 28.8762 11.7 29.2042 11.884C29.5322 12.06 29.8922 12.148 30.2842 12.148ZM34.684 9.688C34.684 9.016 34.82 8.428 35.092 7.924C35.364 7.412 35.736 7.016 36.208 6.736C36.688 6.456 37.224 6.316 37.816 6.316C38.328 6.316 38.804 6.436 39.244 6.676C39.684 6.908 40.02 7.216 40.252 7.6V4.12H41.356V13H40.252V11.764C40.036 12.156 39.716 12.48 39.292 12.736C38.868 12.984 38.372 13.108 37.804 13.108C37.22 13.108 36.688 12.964 36.208 12.676C35.736 12.388 35.364 11.984 35.092 11.464C34.82 10.944 34.684 10.352 34.684 9.688ZM40.252 9.7C40.252 9.204 40.152 8.772 39.952 8.404C39.752 8.036 39.48 7.756 39.136 7.564C38.8 7.364 38.428 7.264 38.02 7.264C37.612 7.264 37.24 7.36 36.904 7.552C36.568 7.744 36.3 8.024 36.1 8.392C35.9 8.76 35.8 9.192 35.8 9.688C35.8 10.192 35.9 10.632 36.1 11.008C36.3 11.376 36.568 11.66 36.904 11.86C37.24 12.052 37.612 12.148 38.02 12.148C38.428 12.148 38.8 12.052 39.136 11.86C39.48 11.66 39.752 11.376 39.952 11.008C40.152 10.632 40.252 10.196 40.252 9.7ZM42.7933 9.688C42.7933 9.016 42.9293 8.428 43.2013 7.924C43.4733 7.412 43.8453 7.016 44.3173 6.736C44.7973 6.456 45.3293 6.316 45.9133 6.316C46.4893 6.316 46.9893 6.44 47.4133 6.688C47.8373 6.936 48.1533 7.248 48.3613 7.624V6.424H49.4653V13H48.3613V11.776C48.1453 12.16 47.8213 12.48 47.3893 12.736C46.9653 12.984 46.4693 13.108 45.9013 13.108C45.3173 13.108 44.7893 12.964 44.3173 12.676C43.8453 12.388 43.4733 11.984 43.2013 11.464C42.9293 10.944 42.7933 10.352 42.7933 9.688ZM48.3613 9.7C48.3613 9.204 48.2613 8.772 48.0613 8.404C47.8613 8.036 47.5893 7.756 47.2453 7.564C46.9093 7.364 46.5373 7.264 46.1293 7.264C45.7213 7.264 45.3493 7.36 45.0133 7.552C44.6773 7.744 44.4093 8.024 44.2093 8.392C44.0093 8.76 43.9093 9.192 43.9093 9.688C43.9093 10.192 44.0093 10.632 44.2093 11.008C44.4093 11.376 44.6773 11.66 45.0133 11.86C45.3493 12.052 45.7213 12.148 46.1293 12.148C46.5373 12.148 46.9093 12.052 47.2453 11.86C47.5893 11.66 47.8613 11.376 48.0613 11.008C48.2613 10.632 48.3613 10.196 48.3613 9.7ZM56.9747 6.424L53.0147 16.096H51.8867L53.1827 12.928L50.5307 6.424H51.7427L53.8067 11.752L55.8467 6.424H56.9747Z" fill="#878787"/>
<g clip-path="url(#clip1_27663_572)">
<path d="M84.6666 15.6667C84.6666 14.2523 85.2285 12.8957 86.2287 11.8955C87.2289 10.8953 88.5855 10.3334 90 10.3334C91.4144 10.3334 92.771 10.8953 93.7712 11.8955C94.7714 12.8957 95.3333 14.2523 95.3333 15.6667H94C94 14.6059 93.5785 13.5885 92.8284 12.8383C92.0782 12.0882 91.0608 11.6667 90 11.6667C88.9391 11.6667 87.9217 12.0882 87.1715 12.8383C86.4214 13.5885 86 14.6059 86 15.6667H84.6666ZM90 9.66675C87.79 9.66675 86 7.87675 86 5.66675C86 3.45675 87.79 1.66675 90 1.66675C92.21 1.66675 94 3.45675 94 5.66675C94 7.87675 92.21 9.66675 90 9.66675ZM90 8.33342C91.4733 8.33342 92.6666 7.14008 92.6666 5.66675C92.6666 4.19341 91.4733 3.00008 90 3.00008C88.5266 3.00008 87.3333 4.19341 87.3333 5.66675C87.3333 7.14008 88.5266 8.33342 90 8.33342Z" fill="#878787"/>
</g>
<path d="M107.136 4.636V10.816C107.136 11.504 106.924 12.056 106.5 12.472C106.076 12.88 105.516 13.084 104.82 13.084C104.116 13.084 103.552 12.876 103.128 12.46C102.704 12.036 102.492 11.46 102.492 10.732H103.584C103.592 11.14 103.696 11.472 103.896 11.728C104.104 11.984 104.412 12.112 104.82 12.112C105.228 12.112 105.532 11.992 105.732 11.752C105.932 11.504 106.032 11.192 106.032 10.816V4.636H107.136ZM108.879 9.688C108.879 9.016 109.015 8.428 109.287 7.924C109.559 7.412 109.931 7.016 110.403 6.736C110.883 6.456 111.415 6.316 111.999 6.316C112.575 6.316 113.075 6.44 113.499 6.688C113.923 6.936 114.239 7.248 114.447 7.624V6.424H115.551V13H114.447V11.776C114.231 12.16 113.907 12.48 113.475 12.736C113.051 12.984 112.555 13.108 111.987 13.108C111.403 13.108 110.875 12.964 110.403 12.676C109.931 12.388 109.559 11.984 109.287 11.464C109.015 10.944 108.879 10.352 108.879 9.688ZM114.447 9.7C114.447 9.204 114.347 8.772 114.147 8.404C113.947 8.036 113.675 7.756 113.331 7.564C112.995 7.364 112.623 7.264 112.215 7.264C111.807 7.264 111.435 7.36 111.099 7.552C110.763 7.744 110.495 8.024 110.295 8.392C110.095 8.76 109.995 9.192 109.995 9.688C109.995 10.192 110.095 10.632 110.295 11.008C110.495 11.376 110.763 11.66 111.099 11.86C111.435 12.052 111.807 12.148 112.215 12.148C112.623 12.148 112.995 12.052 113.331 11.86C113.675 11.66 113.947 11.376 114.147 11.008C114.347 10.632 114.447 10.196 114.447 9.7ZM125.305 6.304C125.817 6.304 126.273 6.412 126.673 6.628C127.073 6.836 127.389 7.152 127.621 7.576C127.853 8 127.969 8.516 127.969 9.124V13H126.889V9.28C126.889 8.624 126.725 8.124 126.397 7.78C126.077 7.428 125.641 7.252 125.089 7.252C124.521 7.252 124.069 7.436 123.733 7.804C123.397 8.164 123.229 8.688 123.229 9.376V13H122.149V9.28C122.149 8.624 121.985 8.124 121.657 7.78C121.337 7.428 120.901 7.252 120.349 7.252C119.781 7.252 119.329 7.436 118.993 7.804C118.657 8.164 118.489 8.688 118.489 9.376V13H117.397V6.424H118.489V7.372C118.705 7.028 118.993 6.764 119.353 6.58C119.721 6.396 120.125 6.304 120.565 6.304C121.117 6.304 121.605 6.428 122.029 6.676C122.453 6.924 122.769 7.288 122.977 7.768C123.161 7.304 123.465 6.944 123.889 6.688C124.313 6.432 124.785 6.304 125.305 6.304ZM135.76 9.46C135.76 9.668 135.748 9.888 135.724 10.12H130.468C130.508 10.768 130.728 11.276 131.128 11.644C131.536 12.004 132.028 12.184 132.604 12.184C133.076 12.184 133.468 12.076 133.78 11.86C134.1 11.636 134.324 11.34 134.452 10.972H135.628C135.452 11.604 135.1 12.12 134.572 12.52C134.044 12.912 133.388 13.108 132.604 13.108C131.98 13.108 131.42 12.968 130.924 12.688C130.436 12.408 130.052 12.012 129.772 11.5C129.492 10.98 129.352 10.38 129.352 9.7C129.352 9.02 129.488 8.424 129.76 7.912C130.032 7.4 130.412 7.008 130.9 6.736C131.396 6.456 131.964 6.316 132.604 6.316C133.228 6.316 133.78 6.452 134.26 6.724C134.74 6.996 135.108 7.372 135.364 7.852C135.628 8.324 135.76 8.86 135.76 9.46ZM134.632 9.232C134.632 8.816 134.54 8.46 134.356 8.164C134.172 7.86 133.92 7.632 133.6 7.48C133.288 7.32 132.94 7.24 132.556 7.24C132.004 7.24 131.532 7.416 131.14 7.768C130.756 8.12 130.536 8.608 130.48 9.232H134.632ZM139.529 13.108C139.025 13.108 138.573 13.024 138.173 12.856C137.773 12.68 137.457 12.44 137.225 12.136C136.993 11.824 136.865 11.468 136.841 11.068H137.969C138.001 11.396 138.153 11.664 138.425 11.872C138.705 12.08 139.069 12.184 139.517 12.184C139.933 12.184 140.261 12.092 140.501 11.908C140.741 11.724 140.861 11.492 140.861 11.212C140.861 10.924 140.733 10.712 140.477 10.576C140.221 10.432 139.825 10.292 139.289 10.156C138.801 10.028 138.401 9.9 138.089 9.772C137.785 9.636 137.521 9.44 137.297 9.184C137.081 8.92 136.973 8.576 136.973 8.152C136.973 7.816 137.073 7.508 137.273 7.228C137.473 6.948 137.757 6.728 138.125 6.568C138.493 6.4 138.913 6.316 139.385 6.316C140.113 6.316 140.701 6.5 141.149 6.868C141.597 7.236 141.837 7.74 141.869 8.38H140.777C140.753 8.036 140.613 7.76 140.357 7.552C140.109 7.344 139.773 7.24 139.349 7.24C138.957 7.24 138.645 7.324 138.413 7.492C138.181 7.66 138.065 7.88 138.065 8.152C138.065 8.368 138.133 8.548 138.269 8.692C138.413 8.828 138.589 8.94 138.797 9.028C139.013 9.108 139.309 9.2 139.685 9.304C140.157 9.432 140.541 9.56 140.837 9.688C141.133 9.808 141.385 9.992 141.593 10.24C141.809 10.488 141.921 10.812 141.929 11.212C141.929 11.572 141.829 11.896 141.629 12.184C141.429 12.472 141.145 12.7 140.777 12.868C140.417 13.028 140.001 13.108 139.529 13.108ZM146.262 8.812C146.262 7.996 146.446 7.264 146.814 6.616C147.182 5.96 147.682 5.448 148.314 5.08C148.954 4.712 149.662 4.528 150.438 4.528C151.35 4.528 152.146 4.748 152.826 5.188C153.506 5.628 154.002 6.252 154.314 7.06H153.006C152.774 6.556 152.438 6.168 151.998 5.896C151.566 5.624 151.046 5.488 150.438 5.488C149.854 5.488 149.33 5.624 148.866 5.896C148.402 6.168 148.038 6.556 147.774 7.06C147.51 7.556 147.378 8.14 147.378 8.812C147.378 9.476 147.51 10.06 147.774 10.564C148.038 11.06 148.402 11.444 148.866 11.716C149.33 11.988 149.854 12.124 150.438 12.124C151.046 12.124 151.566 11.992 151.998 11.728C152.438 11.456 152.774 11.068 153.006 10.564H154.314C154.002 11.364 153.506 11.984 152.826 12.424C152.146 12.856 151.35 13.072 150.438 13.072C149.662 13.072 148.954 12.892 148.314 12.532C147.682 12.164 147.182 11.656 146.814 11.008C146.446 10.36 146.262 9.628 146.262 8.812ZM155.532 9.688C155.532 9.016 155.668 8.428 155.94 7.924C156.212 7.412 156.584 7.016 157.056 6.736C157.536 6.456 158.068 6.316 158.652 6.316C159.228 6.316 159.728 6.44 160.152 6.688C160.576 6.936 160.892 7.248 161.1 7.624V6.424H162.204V13H161.1V11.776C160.884 12.16 160.56 12.48 160.128 12.736C159.704 12.984 159.208 13.108 158.64 13.108C158.056 13.108 157.528 12.964 157.056 12.676C156.584 12.388 156.212 11.984 155.94 11.464C155.668 10.944 155.532 10.352 155.532 9.688ZM161.1 9.7C161.1 9.204 161 8.772 160.8 8.404C160.6 8.036 160.328 7.756 159.984 7.564C159.648 7.364 159.276 7.264 158.868 7.264C158.46 7.264 158.088 7.36 157.752 7.552C157.416 7.744 157.148 8.024 156.948 8.392C156.748 8.76 156.648 9.192 156.648 9.688C156.648 10.192 156.748 10.632 156.948 11.008C157.148 11.376 157.416 11.66 157.752 11.86C158.088 12.052 158.46 12.148 158.868 12.148C159.276 12.148 159.648 12.052 159.984 11.86C160.328 11.66 160.6 11.376 160.8 11.008C161 10.632 161.1 10.196 161.1 9.7ZM165.141 4.12V13H164.049V4.12H165.141ZM167.818 12.1H171.046V13H166.57V12.1L169.762 7.312H166.594V6.424H171.022V7.312L167.818 12.1ZM175.331 13.108C174.715 13.108 174.155 12.968 173.651 12.688C173.155 12.408 172.763 12.012 172.475 11.5C172.195 10.98 172.055 10.38 172.055 9.7C172.055 9.028 172.199 8.436 172.487 7.924C172.783 7.404 173.183 7.008 173.687 6.736C174.191 6.456 174.755 6.316 175.379 6.316C176.003 6.316 176.567 6.456 177.071 6.736C177.575 7.008 177.971 7.4 178.259 7.912C178.555 8.424 178.703 9.02 178.703 9.7C178.703 10.38 178.551 10.98 178.247 11.5C177.951 12.012 177.547 12.408 177.035 12.688C176.523 12.968 175.955 13.108 175.331 13.108ZM175.331 12.148C175.723 12.148 176.091 12.056 176.435 11.872C176.779 11.688 177.055 11.412 177.263 11.044C177.479 10.676 177.587 10.228 177.587 9.7C177.587 9.172 177.483 8.724 177.275 8.356C177.067 7.988 176.795 7.716 176.459 7.54C176.123 7.356 175.759 7.264 175.367 7.264C174.967 7.264 174.599 7.356 174.263 7.54C173.935 7.716 173.671 7.988 173.471 8.356C173.271 8.724 173.171 9.172 173.171 9.7C173.171 10.236 173.267 10.688 173.459 11.056C173.659 11.424 173.923 11.7 174.251 11.884C174.579 12.06 174.939 12.148 175.331 12.148ZM183.343 6.304C184.143 6.304 184.791 6.548 185.287 7.036C185.783 7.516 186.031 8.212 186.031 9.124V13H184.951V9.28C184.951 8.624 184.787 8.124 184.459 7.78C184.131 7.428 183.683 7.252 183.115 7.252C182.539 7.252 182.079 7.432 181.735 7.792C181.399 8.152 181.231 8.676 181.231 9.364V13H180.139V6.424H181.231V7.36C181.447 7.024 181.739 6.764 182.107 6.58C182.483 6.396 182.895 6.304 183.343 6.304ZM188.379 5.356C188.171 5.356 187.995 5.284 187.851 5.14C187.707 4.996 187.635 4.82 187.635 4.612C187.635 4.404 187.707 4.228 187.851 4.084C187.995 3.94 188.171 3.868 188.379 3.868C188.579 3.868 188.747 3.94 188.883 4.084C189.027 4.228 189.099 4.404 189.099 4.612C189.099 4.82 189.027 4.996 188.883 5.14C188.747 5.284 188.579 5.356 188.379 5.356ZM188.907 6.424V13H187.815V6.424H188.907Z" fill="#878787"/>
<g clip-path="url(#clip2_27663_572)">
<path d="M218.861 14.8826L215.333 15.6666L216.117 12.1393C215.601 11.1735 215.332 10.095 215.333 8.99992C215.333 5.31792 218.318 2.33325 222 2.33325C225.682 2.33325 228.667 5.31792 228.667 8.99992C228.667 12.6819 225.682 15.6666 222 15.6666C220.905 15.6682 219.826 15.3989 218.861 14.8826ZM219.054 13.4739L219.489 13.7073C220.262 14.12 221.124 14.3351 222 14.3333C223.055 14.3333 224.086 14.0205 224.963 13.4344C225.84 12.8484 226.524 12.0154 226.927 11.0409C227.331 10.0664 227.437 8.994 227.231 7.95944C227.025 6.92487 226.517 5.97456 225.771 5.22868C225.025 4.4828 224.075 3.97485 223.041 3.76906C222.006 3.56328 220.934 3.66889 219.959 4.07256C218.985 4.47623 218.152 5.15982 217.566 6.03688C216.98 6.91394 216.667 7.94509 216.667 8.99992C216.667 9.88925 216.883 10.7453 217.293 11.5106L217.526 11.9459L217.089 13.9106L219.054 13.4739Z" fill="#878787"/>
</g>
<path d="M234.456 5.32V4.324H236.712V13H235.608V5.32H234.456ZM243.928 5.176L240.592 13H239.488L242.872 5.284H238.24V4.348H243.928V5.176Z" fill="#878787"/>
<defs>
<clipPath id="clip0_27663_572">
<rect width="16" height="16" fill="white" transform="translate(0 1)"/>
</clipPath>
<clipPath id="clip1_27663_572">
<rect width="16" height="16" fill="white" transform="translate(82 1)"/>
</clipPath>
<clipPath id="clip2_27663_572">
<rect width="16" height="16" fill="white" transform="translate(214 1)"/>
</clipPath>
</defs>
</svg>
