<svg width="228" height="20" viewBox="0 0 228 20" fill="none" xmlns="http://www.w3.org/2000/svg">
<g clip-path="url(#clip0_27663_437)">
<path d="M8 15.9334L11.3 12.6334C11.9526 11.9808 12.397 11.1493 12.577 10.244C12.7571 9.33879 12.6646 8.40051 12.3114 7.54781C11.9582 6.69512 11.36 5.96632 10.5926 5.45356C9.82519 4.9408 8.92296 4.66711 8 4.66711C7.07704 4.66711 6.17481 4.9408 5.40739 5.45356C4.63997 5.96632 4.04183 6.69512 3.68861 7.54781C3.33539 8.40051 3.24294 9.33879 3.42297 10.244C3.603 11.1493 4.04741 11.9808 4.7 12.6334L8 15.9334ZM8 17.8188L3.75734 13.5761C2.91823 12.737 2.34679 11.6679 2.11529 10.504C1.88378 9.34013 2.0026 8.13373 2.45673 7.03738C2.91086 5.94103 3.6799 5.00396 4.66659 4.34467C5.65328 3.68539 6.81332 3.3335 8 3.3335C9.18669 3.3335 10.3467 3.68539 11.3334 4.34467C12.3201 5.00396 13.0891 5.94103 13.5433 7.03738C13.9974 8.13373 14.1162 9.34013 13.8847 10.504C13.6532 11.6679 13.0818 12.737 12.2427 13.5761L8 17.8188ZM8 10.6668C8.35362 10.6668 8.69276 10.5263 8.94281 10.2763C9.19286 10.0262 9.33334 9.68707 9.33334 9.33344C9.33334 8.97982 9.19286 8.64068 8.94281 8.39064C8.69276 8.14059 8.35362 8.00011 8 8.00011C7.64638 8.00011 7.30724 8.14059 7.05719 8.39064C6.80715 8.64068 6.66667 8.97982 6.66667 9.33344C6.66667 9.68707 6.80715 10.0262 7.05719 10.2763C7.30724 10.5263 7.64638 10.6668 8 10.6668ZM8 12.0001C7.29276 12.0001 6.61448 11.7192 6.11438 11.2191C5.61429 10.719 5.33334 10.0407 5.33334 9.33344C5.33334 8.6262 5.61429 7.94792 6.11438 7.44783C6.61448 6.94773 7.29276 6.66678 8 6.66678C8.70725 6.66678 9.38552 6.94773 9.88562 7.44783C10.3857 7.94792 10.6667 8.6262 10.6667 9.33344C10.6667 10.0407 10.3857 10.719 9.88562 11.2191C9.38552 11.7192 8.70725 12.0001 8 12.0001Z" fill="#979797"/>
</g>
<path d="M22.158 5.939V11.672C22.158 12.478 22.353 13.076 22.743 13.466C23.1417 13.856 23.692 14.051 24.394 14.051C25.0873 14.051 25.629 13.856 26.019 13.466C26.4177 13.076 26.617 12.478 26.617 11.672V5.939H27.8V11.659C27.8 12.413 27.6483 13.05 27.345 13.57C27.0417 14.0813 26.63 14.4627 26.11 14.714C25.5987 14.9653 25.0223 15.091 24.381 15.091C23.7397 15.091 23.159 14.9653 22.639 14.714C22.1277 14.4627 21.7203 14.0813 21.417 13.57C21.1223 13.05 20.975 12.413 20.975 11.659V5.939H22.158ZM29.3315 11.412C29.3315 10.684 29.4788 10.047 29.7735 9.501C30.0681 8.94633 30.4711 8.51733 30.9825 8.214C31.5025 7.91067 32.0831 7.759 32.7245 7.759C33.2791 7.759 33.7948 7.889 34.2715 8.149C34.7481 8.40033 35.1121 8.734 35.3635 9.15V5.38H36.5595V15H35.3635V13.661C35.1295 14.0857 34.7828 14.4367 34.3235 14.714C33.8641 14.9827 33.3268 15.117 32.7115 15.117C32.0788 15.117 31.5025 14.961 30.9825 14.649C30.4711 14.337 30.0681 13.8993 29.7735 13.336C29.4788 12.7727 29.3315 12.1313 29.3315 11.412ZM35.3635 11.425C35.3635 10.8877 35.2551 10.4197 35.0385 10.021C34.8218 9.62233 34.5271 9.319 34.1545 9.111C33.7905 8.89433 33.3875 8.786 32.9455 8.786C32.5035 8.786 32.1005 8.89 31.7365 9.098C31.3725 9.306 31.0821 9.60933 30.8655 10.008C30.6488 10.4067 30.5405 10.8747 30.5405 11.412C30.5405 11.958 30.6488 12.4347 30.8655 12.842C31.0821 13.2407 31.3725 13.5483 31.7365 13.765C32.1005 13.973 32.5035 14.077 32.9455 14.077C33.3875 14.077 33.7905 13.973 34.1545 13.765C34.5271 13.5483 34.8218 13.2407 35.0385 12.842C35.2551 12.4347 35.3635 11.9623 35.3635 11.425ZM38.1166 11.412C38.1166 10.684 38.264 10.047 38.5586 9.501C38.8533 8.94633 39.2563 8.51733 39.7676 8.214C40.2876 7.91067 40.864 7.759 41.4966 7.759C42.1206 7.759 42.6623 7.89333 43.1216 8.162C43.581 8.43067 43.9233 8.76867 44.1486 9.176V7.876H45.3446V15H44.1486V13.674C43.9146 14.09 43.5636 14.4367 43.0956 14.714C42.6363 14.9827 42.099 15.117 41.4836 15.117C40.851 15.117 40.279 14.961 39.7676 14.649C39.2563 14.337 38.8533 13.8993 38.5586 13.336C38.264 12.7727 38.1166 12.1313 38.1166 11.412ZM44.1486 11.425C44.1486 10.8877 44.0403 10.4197 43.8236 10.021C43.607 9.62233 43.3123 9.319 42.9396 9.111C42.5756 8.89433 42.1726 8.786 41.7306 8.786C41.2886 8.786 40.8856 8.89 40.5216 9.098C40.1576 9.306 39.8673 9.60933 39.6506 10.008C39.434 10.4067 39.3256 10.8747 39.3256 11.412C39.3256 11.958 39.434 12.4347 39.6506 12.842C39.8673 13.2407 40.1576 13.5483 40.5216 13.765C40.8856 13.973 41.2886 14.077 41.7306 14.077C42.1726 14.077 42.5756 13.973 42.9396 13.765C43.3123 13.5483 43.607 13.2407 43.8236 12.842C44.0403 12.4347 44.1486 11.9623 44.1486 11.425ZM47.9548 6.719C47.7294 6.719 47.5388 6.641 47.3828 6.485C47.2268 6.329 47.1488 6.13833 47.1488 5.913C47.1488 5.68767 47.2268 5.497 47.3828 5.341C47.5388 5.185 47.7294 5.107 47.9548 5.107C48.1714 5.107 48.3534 5.185 48.5008 5.341C48.6568 5.497 48.7348 5.68767 48.7348 5.913C48.7348 6.13833 48.6568 6.329 48.5008 6.485C48.3534 6.641 48.1714 6.719 47.9548 6.719ZM48.5268 7.876V15H47.3438V7.876H48.5268ZM51.726 9.189C51.96 8.78167 52.3067 8.44367 52.766 8.175C53.234 7.89767 53.7757 7.759 54.391 7.759C55.0237 7.759 55.5957 7.91067 56.107 8.214C56.627 8.51733 57.0343 8.94633 57.329 9.501C57.6237 10.047 57.771 10.684 57.771 11.412C57.771 12.1313 57.6237 12.7727 57.329 13.336C57.0343 13.8993 56.627 14.337 56.107 14.649C55.5957 14.961 55.0237 15.117 54.391 15.117C53.7843 15.117 53.247 14.9827 52.779 14.714C52.3197 14.4367 51.9687 14.0943 51.726 13.687V18.38H50.543V7.876H51.726V9.189ZM56.562 11.412C56.562 10.8747 56.4537 10.4067 56.237 10.008C56.0203 9.60933 55.7257 9.306 55.353 9.098C54.989 8.89 54.586 8.786 54.144 8.786C53.7107 8.786 53.3077 8.89433 52.935 9.111C52.571 9.319 52.2763 9.62667 52.051 10.034C51.8343 10.4327 51.726 10.8963 51.726 11.425C51.726 11.9623 51.8343 12.4347 52.051 12.842C52.2763 13.2407 52.571 13.5483 52.935 13.765C53.3077 13.973 53.7107 14.077 54.144 14.077C54.586 14.077 54.989 13.973 55.353 13.765C55.7257 13.5483 56.0203 13.2407 56.237 12.842C56.4537 12.4347 56.562 11.958 56.562 11.412ZM65.6461 7.876V15H64.4631V13.947C64.2378 14.311 63.9215 14.597 63.5141 14.805C63.1155 15.0043 62.6735 15.104 62.1881 15.104C61.6335 15.104 61.1351 14.9913 60.6931 14.766C60.2511 14.532 59.9001 14.1853 59.6401 13.726C59.3888 13.2667 59.2631 12.7077 59.2631 12.049V7.876H60.4331V11.893C60.4331 12.595 60.6108 13.1367 60.9661 13.518C61.3215 13.8907 61.8068 14.077 62.4221 14.077C63.0548 14.077 63.5531 13.882 63.9171 13.492C64.2811 13.102 64.4631 12.5343 64.4631 11.789V7.876H65.6461ZM68.8266 9.033C69.0346 8.62567 69.3292 8.30933 69.7106 8.084C70.1006 7.85867 70.5729 7.746 71.1276 7.746V8.968H70.8156C69.4896 8.968 68.8266 9.68733 68.8266 11.126V15H67.6436V7.876H68.8266V9.033ZM73.7152 13.362L72.2592 16.859H71.4662L72.4152 13.362H73.7152ZM79.7192 5.939V15H78.5362V5.939H79.7192ZM85.2064 7.746C86.073 7.746 86.775 8.01033 87.3124 8.539C87.8497 9.059 88.1184 9.813 88.1184 10.801V15H86.9484V10.97C86.9484 10.2593 86.7707 9.71767 86.4154 9.345C86.06 8.96367 85.5747 8.773 84.9594 8.773C84.3354 8.773 83.837 8.968 83.4644 9.358C83.1004 9.748 82.9184 10.3157 82.9184 11.061V15H81.7354V7.876H82.9184V8.89C83.1524 8.526 83.4687 8.24433 83.8674 8.045C84.2747 7.84567 84.721 7.746 85.2064 7.746ZM89.6088 11.412C89.6088 10.684 89.7561 10.047 90.0508 9.501C90.3455 8.94633 90.7485 8.51733 91.2598 8.214C91.7798 7.91067 92.3605 7.759 93.0018 7.759C93.5565 7.759 94.0721 7.889 94.5488 8.149C95.0255 8.40033 95.3895 8.734 95.6408 9.15V5.38H96.8368V15H95.6408V13.661C95.4068 14.0857 95.0601 14.4367 94.6008 14.714C94.1415 14.9827 93.6041 15.117 92.9888 15.117C92.3561 15.117 91.7798 14.961 91.2598 14.649C90.7485 14.337 90.3455 13.8993 90.0508 13.336C89.7561 12.7727 89.6088 12.1313 89.6088 11.412ZM95.6408 11.425C95.6408 10.8877 95.5325 10.4197 95.3158 10.021C95.0991 9.62233 94.8045 9.319 94.4318 9.111C94.0678 8.89433 93.6648 8.786 93.2228 8.786C92.7808 8.786 92.3778 8.89 92.0138 9.098C91.6498 9.306 91.3595 9.60933 91.1428 10.008C90.9261 10.4067 90.8178 10.8747 90.8178 11.412C90.8178 11.958 90.9261 12.4347 91.1428 12.842C91.3595 13.2407 91.6498 13.5483 92.0138 13.765C92.3778 13.973 92.7808 14.077 93.2228 14.077C93.6648 14.077 94.0678 13.973 94.4318 13.765C94.8045 13.5483 95.0991 13.2407 95.3158 12.842C95.5325 12.4347 95.6408 11.9623 95.6408 11.425ZM99.447 6.719C99.2216 6.719 99.031 6.641 98.875 6.485C98.719 6.329 98.641 6.13833 98.641 5.913C98.641 5.68767 98.719 5.497 98.875 5.341C99.031 5.185 99.2216 5.107 99.447 5.107C99.6636 5.107 99.8456 5.185 99.993 5.341C100.149 5.497 100.227 5.68767 100.227 5.913C100.227 6.13833 100.149 6.329 99.993 6.485C99.8456 6.641 99.6636 6.719 99.447 6.719ZM100.019 7.876V15H98.836V7.876H100.019ZM101.593 11.412C101.593 10.684 101.741 10.047 102.035 9.501C102.33 8.94633 102.733 8.51733 103.244 8.214C103.764 7.91067 104.341 7.759 104.973 7.759C105.597 7.759 106.139 7.89333 106.598 8.162C107.058 8.43067 107.4 8.76867 107.625 9.176V7.876H108.821V15H107.625V13.674C107.391 14.09 107.04 14.4367 106.572 14.714C106.113 14.9827 105.576 15.117 104.96 15.117C104.328 15.117 103.756 14.961 103.244 14.649C102.733 14.337 102.33 13.8993 102.035 13.336C101.741 12.7727 101.593 12.1313 101.593 11.412ZM107.625 11.425C107.625 10.8877 107.517 10.4197 107.3 10.021C107.084 9.62233 106.789 9.319 106.416 9.111C106.052 8.89433 105.649 8.786 105.207 8.786C104.765 8.786 104.362 8.89 103.998 9.098C103.634 9.306 103.344 9.60933 103.127 10.008C102.911 10.4067 102.802 10.8747 102.802 11.412C102.802 11.958 102.911 12.4347 103.127 12.842C103.344 13.2407 103.634 13.5483 103.998 13.765C104.362 13.973 104.765 14.077 105.207 14.077C105.649 14.077 106.052 13.973 106.416 13.765C106.789 13.5483 107.084 13.2407 107.3 12.842C107.517 12.4347 107.625 11.9623 107.625 11.425Z" fill="#979797"/>
<defs>
<clipPath id="clip0_27663_437">
<rect width="16" height="16" fill="white" transform="translate(0 2)"/>
</clipPath>
</defs>
</svg>
