<svg width="228" height="20" viewBox="0 0 228 20" fill="none" xmlns="http://www.w3.org/2000/svg">
<g clip-path="url(#clip0_27663_242)">
<path d="M8 15.9334L11.3 12.6334C11.9526 11.9808 12.397 11.1493 12.577 10.244C12.7571 9.33879 12.6646 8.40051 12.3114 7.54781C11.9582 6.69512 11.36 5.96632 10.5926 5.45356C9.82519 4.9408 8.92296 4.66711 8 4.66711C7.07704 4.66711 6.17481 4.9408 5.40739 5.45356C4.63997 5.96632 4.04183 6.69512 3.68861 7.54781C3.33539 8.40051 3.24294 9.33879 3.42297 10.244C3.603 11.1493 4.04741 11.9808 4.7 12.6334L8 15.9334ZM8 17.8188L3.75734 13.5761C2.91823 12.737 2.34679 11.6679 2.11529 10.504C1.88378 9.34013 2.0026 8.13373 2.45673 7.03738C2.91086 5.94103 3.6799 5.00396 4.66659 4.34467C5.65328 3.68539 6.81332 3.3335 8 3.3335C9.18669 3.3335 10.3467 3.68539 11.3334 4.34467C12.3201 5.00396 13.0891 5.94103 13.5433 7.03738C13.9974 8.13373 14.1162 9.34013 13.8847 10.504C13.6532 11.6679 13.0818 12.737 12.2427 13.5761L8 17.8188ZM8 10.6668C8.35362 10.6668 8.69276 10.5263 8.94281 10.2763C9.19286 10.0262 9.33334 9.68707 9.33334 9.33344C9.33334 8.97982 9.19286 8.64068 8.94281 8.39064C8.69276 8.14059 8.35362 8.00011 8 8.00011C7.64638 8.00011 7.30724 8.14059 7.05719 8.39064C6.80715 8.64068 6.66667 8.97982 6.66667 9.33344C6.66667 9.68707 6.80715 10.0262 7.05719 10.2763C7.30724 10.5263 7.64638 10.6668 8 10.6668ZM8 12.0001C7.29276 12.0001 6.61448 11.7192 6.11438 11.2191C5.61429 10.719 5.33334 10.0407 5.33334 9.33344C5.33334 8.6262 5.61429 7.94792 6.11438 7.44783C6.61448 6.94773 7.29276 6.66678 8 6.66678C8.70725 6.66678 9.38552 6.94773 9.88562 7.44783C10.3857 7.94792 10.6667 8.6262 10.6667 9.33344C10.6667 10.0407 10.3857 10.719 9.88562 11.2191C9.38552 11.7192 8.70725 12.0001 8 12.0001Z" fill="#979797"/>
</g>
<path d="M23.874 15.091C23.276 15.091 22.7387 14.987 22.262 14.779C21.794 14.5623 21.4257 14.2677 21.157 13.895C20.8883 13.5137 20.7497 13.076 20.741 12.582H22.002C22.0453 13.0067 22.2187 13.3663 22.522 13.661C22.834 13.947 23.2847 14.09 23.874 14.09C24.4373 14.09 24.8793 13.9513 25.2 13.674C25.5293 13.388 25.694 13.024 25.694 12.582C25.694 12.2353 25.5987 11.9537 25.408 11.737C25.2173 11.5203 24.979 11.3557 24.693 11.243C24.407 11.1303 24.0213 11.009 23.536 10.879C22.938 10.723 22.457 10.567 22.093 10.411C21.7377 10.255 21.43 10.0123 21.17 9.683C20.9187 9.345 20.793 8.89433 20.793 8.331C20.793 7.837 20.9187 7.39933 21.17 7.018C21.4213 6.63667 21.7723 6.342 22.223 6.134C22.6823 5.926 23.2067 5.822 23.796 5.822C24.6453 5.822 25.3387 6.03433 25.876 6.459C26.422 6.88367 26.7297 7.447 26.799 8.149H25.499C25.4557 7.80233 25.2737 7.499 24.953 7.239C24.6323 6.97033 24.2077 6.836 23.679 6.836C23.185 6.836 22.782 6.966 22.47 7.226C22.158 7.47733 22.002 7.83267 22.002 8.292C22.002 8.62133 22.093 8.89 22.275 9.098C22.4657 9.306 22.6953 9.46633 22.964 9.579C23.2413 9.683 23.627 9.80433 24.121 9.943C24.719 10.1077 25.2 10.2723 25.564 10.437C25.928 10.593 26.24 10.84 26.5 11.178C26.76 11.5073 26.89 11.958 26.89 12.53C26.89 12.972 26.773 13.388 26.539 13.778C26.305 14.168 25.9583 14.4843 25.499 14.727C25.0397 14.9697 24.498 15.091 23.874 15.091ZM28.1889 11.412C28.1889 10.684 28.3362 10.047 28.6309 9.501C28.9255 8.94633 29.3285 8.51733 29.8399 8.214C30.3599 7.91067 30.9362 7.759 31.5689 7.759C32.1929 7.759 32.7345 7.89333 33.1939 8.162C33.6532 8.43067 33.9955 8.76867 34.2209 9.176V7.876H35.4169V15H34.2209V13.674C33.9869 14.09 33.6359 14.4367 33.1679 14.714C32.7085 14.9827 32.1712 15.117 31.5559 15.117C30.9232 15.117 30.3512 14.961 29.8399 14.649C29.3285 14.337 28.9255 13.8993 28.6309 13.336C28.3362 12.7727 28.1889 12.1313 28.1889 11.412ZM34.2209 11.425C34.2209 10.8877 34.1125 10.4197 33.8959 10.021C33.6792 9.62233 33.3845 9.319 33.0119 9.111C32.6479 8.89433 32.2449 8.786 31.8029 8.786C31.3609 8.786 30.9579 8.89 30.5939 9.098C30.2299 9.306 29.9395 9.60933 29.7229 10.008C29.5062 10.4067 29.3979 10.8747 29.3979 11.412C29.3979 11.958 29.5062 12.4347 29.7229 12.842C29.9395 13.2407 30.2299 13.5483 30.5939 13.765C30.9579 13.973 31.3609 14.077 31.8029 14.077C32.2449 14.077 32.6479 13.973 33.0119 13.765C33.3845 13.5483 33.6792 13.2407 33.8959 12.842C34.1125 12.4347 34.2209 11.9623 34.2209 11.425ZM38.599 5.38V15H37.416V5.38H38.599ZM47.1153 11.165C47.1153 11.3903 47.1023 11.6287 47.0763 11.88H41.3823C41.4256 12.582 41.6639 13.1323 42.0973 13.531C42.5393 13.921 43.0723 14.116 43.6963 14.116C44.2076 14.116 44.6323 13.999 44.9703 13.765C45.3169 13.5223 45.5596 13.2017 45.6983 12.803H46.9723C46.7816 13.4877 46.4003 14.0467 45.8283 14.48C45.2563 14.9047 44.5456 15.117 43.6963 15.117C43.0203 15.117 42.4136 14.9653 41.8763 14.662C41.3476 14.3587 40.9316 13.9297 40.6283 13.375C40.3249 12.8117 40.1733 12.1617 40.1733 11.425C40.1733 10.6883 40.3206 10.0427 40.6153 9.488C40.9099 8.93333 41.3216 8.50867 41.8503 8.214C42.3876 7.91067 43.0029 7.759 43.6963 7.759C44.3723 7.759 44.9703 7.90633 45.4903 8.201C46.0103 8.49567 46.4089 8.903 46.6863 9.423C46.9723 9.93433 47.1153 10.515 47.1153 11.165ZM45.8933 10.918C45.8933 10.4673 45.7936 10.0817 45.5943 9.761C45.3949 9.43167 45.1219 9.18467 44.7753 9.02C44.4373 8.84667 44.0603 8.76 43.6443 8.76C43.0463 8.76 42.5349 8.95067 42.1103 9.332C41.6943 9.71333 41.4559 10.242 41.3953 10.918H45.8933ZM49.8598 9.033C50.0678 8.62567 50.3624 8.30933 50.7438 8.084C51.1338 7.85867 51.6061 7.746 52.1608 7.746V8.968H51.8488C50.5228 8.968 49.8598 9.68733 49.8598 11.126V15H48.6768V7.876H49.8598V9.033ZM56.9974 7.746C57.8641 7.746 58.5661 8.01033 59.1034 8.539C59.6407 9.059 59.9094 9.813 59.9094 10.801V15H58.7394V10.97C58.7394 10.2593 58.5617 9.71767 58.2064 9.345C57.8511 8.96367 57.3657 8.773 56.7504 8.773C56.1264 8.773 55.6281 8.968 55.2554 9.358C54.8914 9.748 54.7094 10.3157 54.7094 11.061V15H53.5264V7.876H54.7094V8.89C54.9434 8.526 55.2597 8.24433 55.6584 8.045C56.0657 7.84567 56.5121 7.746 56.9974 7.746ZM64.9488 15.117C64.2815 15.117 63.6748 14.9653 63.1288 14.662C62.5915 14.3587 62.1668 13.9297 61.8548 13.375C61.5515 12.8117 61.3998 12.1617 61.3998 11.425C61.3998 10.697 61.5558 10.0557 61.8678 9.501C62.1885 8.93767 62.6218 8.50867 63.1678 8.214C63.7138 7.91067 64.3248 7.759 65.0008 7.759C65.6768 7.759 66.2878 7.91067 66.8338 8.214C67.3798 8.50867 67.8088 8.93333 68.1208 9.488C68.4415 10.0427 68.6018 10.6883 68.6018 11.425C68.6018 12.1617 68.4372 12.8117 68.1078 13.375C67.7872 13.9297 67.3495 14.3587 66.7948 14.662C66.2402 14.9653 65.6248 15.117 64.9488 15.117ZM64.9488 14.077C65.3735 14.077 65.7722 13.9773 66.1448 13.778C66.5175 13.5787 66.8165 13.2797 67.0418 12.881C67.2758 12.4823 67.3928 11.997 67.3928 11.425C67.3928 10.853 67.2802 10.3677 67.0548 9.969C66.8295 9.57033 66.5348 9.27567 66.1708 9.085C65.8068 8.88567 65.4125 8.786 64.9878 8.786C64.5545 8.786 64.1558 8.88567 63.7918 9.085C63.4365 9.27567 63.1505 9.57033 62.9338 9.969C62.7172 10.3677 62.6088 10.853 62.6088 11.425C62.6088 12.0057 62.7128 12.4953 62.9208 12.894C63.1375 13.2927 63.4235 13.5917 63.7788 13.791C64.1342 13.9817 64.5242 14.077 64.9488 14.077ZM71.3793 13.362L69.9233 16.859H69.1302L70.0793 13.362H71.3793ZM77.3832 5.939V15H76.2002V5.939H77.3832ZM80.8424 8.851V13.05C80.8424 13.3967 80.9161 13.6437 81.0634 13.791C81.2108 13.9297 81.4664 13.999 81.8304 13.999H82.7014V15H81.6354C80.9768 15 80.4828 14.8483 80.1534 14.545C79.8241 14.2417 79.6594 13.7433 79.6594 13.05V8.851H78.7364V7.876H79.6594V6.082H80.8424V7.876H82.7014V8.851H80.8424ZM83.6928 11.412C83.6928 10.684 83.8401 10.047 84.1348 9.501C84.4295 8.94633 84.8325 8.51733 85.3438 8.214C85.8638 7.91067 86.4401 7.759 87.0728 7.759C87.6968 7.759 88.2385 7.89333 88.6978 8.162C89.1571 8.43067 89.4995 8.76867 89.7248 9.176V7.876H90.9208V15H89.7248V13.674C89.4908 14.09 89.1398 14.4367 88.6718 14.714C88.2125 14.9827 87.6751 15.117 87.0598 15.117C86.4271 15.117 85.8551 14.961 85.3438 14.649C84.8325 14.337 84.4295 13.8993 84.1348 13.336C83.8401 12.7727 83.6928 12.1313 83.6928 11.412ZM89.7248 11.425C89.7248 10.8877 89.6165 10.4197 89.3998 10.021C89.1831 9.62233 88.8885 9.319 88.5158 9.111C88.1518 8.89433 87.7488 8.786 87.3068 8.786C86.8648 8.786 86.4618 8.89 86.0978 9.098C85.7338 9.306 85.4435 9.60933 85.2268 10.008C85.0101 10.4067 84.9018 10.8747 84.9018 11.412C84.9018 11.958 85.0101 12.4347 85.2268 12.842C85.4435 13.2407 85.7338 13.5483 86.0978 13.765C86.4618 13.973 86.8648 14.077 87.3068 14.077C87.7488 14.077 88.1518 13.973 88.5158 13.765C88.8885 13.5483 89.1831 13.2407 89.3998 12.842C89.6165 12.4347 89.7248 11.9623 89.7248 11.425ZM94.1029 5.38V15H92.9199V5.38H94.1029ZM102.255 7.876L97.9652 18.354H96.7432L98.1472 14.922L95.2742 7.876H96.5872L98.8232 13.648L101.033 7.876H102.255Z" fill="#979797"/>
<defs>
<clipPath id="clip0_27663_242">
<rect width="16" height="16" fill="white" transform="translate(0 2)"/>
</clipPath>
</defs>
</svg>
