<svg width="228" height="20" viewBox="0 0 228 20" fill="none" xmlns="http://www.w3.org/2000/svg">
<g clip-path="url(#clip0_27663_537)">
<path d="M8 15.9334L11.3 12.6334C11.9526 11.9808 12.397 11.1493 12.577 10.244C12.7571 9.33879 12.6646 8.40051 12.3114 7.54781C11.9582 6.69512 11.36 5.96632 10.5926 5.45356C9.82519 4.9408 8.92296 4.66711 8 4.66711C7.07704 4.66711 6.17481 4.9408 5.40739 5.45356C4.63997 5.96632 4.04183 6.69512 3.68861 7.54781C3.33539 8.40051 3.24294 9.33879 3.42297 10.244C3.603 11.1493 4.04741 11.9808 4.7 12.6334L8 15.9334ZM8 17.8188L3.75734 13.5761C2.91823 12.737 2.34679 11.6679 2.11529 10.504C1.88378 9.34013 2.0026 8.13373 2.45673 7.03738C2.91086 5.94103 3.6799 5.00396 4.66659 4.34467C5.65328 3.68539 6.81332 3.3335 8 3.3335C9.18669 3.3335 10.3467 3.68539 11.3334 4.34467C12.3201 5.00396 13.0891 5.94103 13.5433 7.03738C13.9974 8.13373 14.1162 9.34013 13.8847 10.504C13.6532 11.6679 13.0818 12.737 12.2427 13.5761L8 17.8188ZM8 10.6668C8.35362 10.6668 8.69276 10.5263 8.94281 10.2763C9.19286 10.0262 9.33334 9.68707 9.33334 9.33344C9.33334 8.97982 9.19286 8.64068 8.94281 8.39064C8.69276 8.14059 8.35362 8.00011 8 8.00011C7.64638 8.00011 7.30724 8.14059 7.05719 8.39064C6.80715 8.64068 6.66667 8.97982 6.66667 9.33344C6.66667 9.68707 6.80715 10.0262 7.05719 10.2763C7.30724 10.5263 7.64638 10.6668 8 10.6668ZM8 12.0001C7.29276 12.0001 6.61448 11.7192 6.11438 11.2191C5.61429 10.719 5.33334 10.0407 5.33334 9.33344C5.33334 8.6262 5.61429 7.94792 6.11438 7.44783C6.61448 6.94773 7.29276 6.66678 8 6.66678C8.70725 6.66678 9.38552 6.94773 9.88562 7.44783C10.3857 7.94792 10.6667 8.6262 10.6667 9.33344C10.6667 10.0407 10.3857 10.719 9.88562 11.2191C9.38552 11.7192 8.70725 12.0001 8 12.0001Z" fill="#979797"/>
</g>
<path d="M22.184 14.038H25.356V15H21.001V5.939H22.184V14.038ZM26.1703 11.412C26.1703 10.684 26.3177 10.047 26.6123 9.501C26.907 8.94633 27.31 8.51733 27.8213 8.214C28.3413 7.91067 28.9177 7.759 29.5503 7.759C30.1743 7.759 30.716 7.89333 31.1753 8.162C31.6347 8.43067 31.977 8.76867 32.2023 9.176V7.876H33.3983V15H32.2023V13.674C31.9683 14.09 31.6173 14.4367 31.1493 14.714C30.69 14.9827 30.1527 15.117 29.5373 15.117C28.9047 15.117 28.3327 14.961 27.8213 14.649C27.31 14.337 26.907 13.8993 26.6123 13.336C26.3177 12.7727 26.1703 12.1313 26.1703 11.412ZM32.2023 11.425C32.2023 10.8877 32.094 10.4197 31.8773 10.021C31.6607 9.62233 31.366 9.319 30.9933 9.111C30.6293 8.89433 30.2263 8.786 29.7843 8.786C29.3423 8.786 28.9393 8.89 28.5753 9.098C28.2113 9.306 27.921 9.60933 27.7043 10.008C27.4877 10.4067 27.3793 10.8747 27.3793 11.412C27.3793 11.958 27.4877 12.4347 27.7043 12.842C27.921 13.2407 28.2113 13.5483 28.5753 13.765C28.9393 13.973 29.3423 14.077 29.7843 14.077C30.2263 14.077 30.6293 13.973 30.9933 13.765C31.366 13.5483 31.6607 13.2407 31.8773 12.842C32.094 12.4347 32.2023 11.9623 32.2023 11.425ZM39.3755 15L36.5805 11.854V15H35.3975V5.38H36.5805V11.035L39.3235 7.876H40.9745L37.6205 11.425L40.9875 15H39.3755ZM48.5879 11.165C48.5879 11.3903 48.5749 11.6287 48.5489 11.88H42.8549C42.8982 12.582 43.1366 13.1323 43.5699 13.531C44.0119 13.921 44.5449 14.116 45.1689 14.116C45.6802 14.116 46.1049 13.999 46.4429 13.765C46.7896 13.5223 47.0322 13.2017 47.1709 12.803H48.4449C48.2542 13.4877 47.8729 14.0467 47.3009 14.48C46.7289 14.9047 46.0182 15.117 45.1689 15.117C44.4929 15.117 43.8862 14.9653 43.3489 14.662C42.8202 14.3587 42.4042 13.9297 42.1009 13.375C41.7976 12.8117 41.6459 12.1617 41.6459 11.425C41.6459 10.6883 41.7932 10.0427 42.0879 9.488C42.3826 8.93333 42.7942 8.50867 43.3229 8.214C43.8602 7.91067 44.4756 7.759 45.1689 7.759C45.8449 7.759 46.4429 7.90633 46.9629 8.201C47.4829 8.49567 47.8816 8.903 48.1589 9.423C48.4449 9.93433 48.5879 10.515 48.5879 11.165ZM47.3659 10.918C47.3659 10.4673 47.2662 10.0817 47.0669 9.761C46.8676 9.43167 46.5946 9.18467 46.2479 9.02C45.9099 8.84667 45.5329 8.76 45.1169 8.76C44.5189 8.76 44.0076 8.95067 43.5829 9.332C43.1669 9.71333 42.9286 10.242 42.8679 10.918H47.3659ZM53.1733 10.463C53.1733 9.579 53.3726 8.786 53.7713 8.084C54.1699 7.37333 54.7116 6.81867 55.3963 6.42C56.0896 6.02133 56.8566 5.822 57.6973 5.822C58.6853 5.822 59.5476 6.06033 60.2843 6.537C61.0209 7.01367 61.5583 7.68967 61.8963 8.565H60.4793C60.2279 8.019 59.8639 7.59867 59.3873 7.304C58.9193 7.00933 58.3559 6.862 57.6973 6.862C57.0646 6.862 56.4969 7.00933 55.9943 7.304C55.4916 7.59867 55.0973 8.019 54.8113 8.565C54.5253 9.10233 54.3823 9.735 54.3823 10.463C54.3823 11.1823 54.5253 11.815 54.8113 12.361C55.0973 12.8983 55.4916 13.3143 55.9943 13.609C56.4969 13.9037 57.0646 14.051 57.6973 14.051C58.3559 14.051 58.9193 13.908 59.3873 13.622C59.8639 13.3273 60.2279 12.907 60.4793 12.361H61.8963C61.5583 13.2277 61.0209 13.8993 60.2843 14.376C59.5476 14.844 58.6853 15.078 57.6973 15.078C56.8566 15.078 56.0896 14.883 55.3963 14.493C54.7116 14.0943 54.1699 13.544 53.7713 12.842C53.3726 12.14 53.1733 11.347 53.1733 10.463ZM66.7643 15.117C66.0969 15.117 65.4903 14.9653 64.9443 14.662C64.4069 14.3587 63.9823 13.9297 63.6703 13.375C63.3669 12.8117 63.2153 12.1617 63.2153 11.425C63.2153 10.697 63.3713 10.0557 63.6833 9.501C64.0039 8.93767 64.4373 8.50867 64.9833 8.214C65.5293 7.91067 66.1403 7.759 66.8163 7.759C67.4923 7.759 68.1033 7.91067 68.6493 8.214C69.1953 8.50867 69.6243 8.93333 69.9363 9.488C70.2569 10.0427 70.4173 10.6883 70.4173 11.425C70.4173 12.1617 70.2526 12.8117 69.9233 13.375C69.6026 13.9297 69.1649 14.3587 68.6103 14.662C68.0556 14.9653 67.4403 15.117 66.7643 15.117ZM66.7643 14.077C67.1889 14.077 67.5876 13.9773 67.9603 13.778C68.3329 13.5787 68.6319 13.2797 68.8573 12.881C69.0913 12.4823 69.2083 11.997 69.2083 11.425C69.2083 10.853 69.0956 10.3677 68.8703 9.969C68.6449 9.57033 68.3503 9.27567 67.9863 9.085C67.6223 8.88567 67.2279 8.786 66.8033 8.786C66.3699 8.786 65.9713 8.88567 65.6073 9.085C65.2519 9.27567 64.9659 9.57033 64.7493 9.969C64.5326 10.3677 64.4243 10.853 64.4243 11.425C64.4243 12.0057 64.5283 12.4953 64.7363 12.894C64.9529 13.2927 65.2389 13.5917 65.5943 13.791C65.9496 13.9817 66.3396 14.077 66.7643 14.077ZM80.5397 7.746C81.0943 7.746 81.5883 7.863 82.0217 8.097C82.455 8.32233 82.7973 8.66467 83.0487 9.124C83.3 9.58333 83.4257 10.1423 83.4257 10.801V15H82.2557V10.97C82.2557 10.2593 82.078 9.71767 81.7227 9.345C81.376 8.96367 80.9037 8.773 80.3057 8.773C79.6903 8.773 79.2007 8.97233 78.8367 9.371C78.4727 9.761 78.2907 10.3287 78.2907 11.074V15H77.1207V10.97C77.1207 10.2593 76.943 9.71767 76.5877 9.345C76.241 8.96367 75.7687 8.773 75.1707 8.773C74.5553 8.773 74.0657 8.97233 73.7017 9.371C73.3377 9.761 73.1557 10.3287 73.1557 11.074V15H71.9727V7.876H73.1557V8.903C73.3897 8.53033 73.7017 8.24433 74.0917 8.045C74.4903 7.84567 74.928 7.746 75.4047 7.746C76.0027 7.746 76.5313 7.88033 76.9907 8.149C77.45 8.41767 77.7923 8.812 78.0177 9.332C78.217 8.82933 78.5463 8.43933 79.0057 8.162C79.465 7.88467 79.9763 7.746 80.5397 7.746ZM88.4732 15.117C87.8059 15.117 87.1992 14.9653 86.6532 14.662C86.1159 14.3587 85.6912 13.9297 85.3792 13.375C85.0759 12.8117 84.9242 12.1617 84.9242 11.425C84.9242 10.697 85.0802 10.0557 85.3922 9.501C85.7129 8.93767 86.1462 8.50867 86.6922 8.214C87.2382 7.91067 87.8492 7.759 88.5252 7.759C89.2012 7.759 89.8122 7.91067 90.3582 8.214C90.9042 8.50867 91.3332 8.93333 91.6452 9.488C91.9659 10.0427 92.1262 10.6883 92.1262 11.425C92.1262 12.1617 91.9616 12.8117 91.6322 13.375C91.3116 13.9297 90.8739 14.3587 90.3192 14.662C89.7646 14.9653 89.1492 15.117 88.4732 15.117ZM88.4732 14.077C88.8979 14.077 89.2966 13.9773 89.6692 13.778C90.0419 13.5787 90.3409 13.2797 90.5662 12.881C90.8002 12.4823 90.9172 11.997 90.9172 11.425C90.9172 10.853 90.8046 10.3677 90.5792 9.969C90.3539 9.57033 90.0592 9.27567 89.6952 9.085C89.3312 8.88567 88.9369 8.786 88.5122 8.786C88.0789 8.786 87.6802 8.88567 87.3162 9.085C86.9609 9.27567 86.6749 9.57033 86.4582 9.969C86.2416 10.3677 86.1332 10.853 86.1332 11.425C86.1332 12.0057 86.2372 12.4953 86.4452 12.894C86.6619 13.2927 86.9479 13.5917 87.3032 13.791C87.6586 13.9817 88.0486 14.077 88.4732 14.077ZM94.9037 13.362L93.4477 16.859H92.6547L93.6037 13.362H94.9037ZM100.908 5.939V15H99.7246V5.939H100.908ZM104.367 8.851V13.05C104.367 13.3967 104.441 13.6437 104.588 13.791C104.735 13.9297 104.991 13.999 105.355 13.999H106.226V15H105.16C104.501 15 104.007 14.8483 103.678 14.545C103.349 14.2417 103.184 13.7433 103.184 13.05V8.851H102.261V7.876H103.184V6.082H104.367V7.876H106.226V8.851H104.367ZM107.217 11.412C107.217 10.684 107.365 10.047 107.659 9.501C107.954 8.94633 108.357 8.51733 108.868 8.214C109.388 7.91067 109.965 7.759 110.597 7.759C111.221 7.759 111.763 7.89333 112.222 8.162C112.682 8.43067 113.024 8.76867 113.249 9.176V7.876H114.445V15H113.249V13.674C113.015 14.09 112.664 14.4367 112.196 14.714C111.737 14.9827 111.2 15.117 110.584 15.117C109.952 15.117 109.38 14.961 108.868 14.649C108.357 14.337 107.954 13.8993 107.659 13.336C107.365 12.7727 107.217 12.1313 107.217 11.412ZM113.249 11.425C113.249 10.8877 113.141 10.4197 112.924 10.021C112.708 9.62233 112.413 9.319 112.04 9.111C111.676 8.89433 111.273 8.786 110.831 8.786C110.389 8.786 109.986 8.89 109.622 9.098C109.258 9.306 108.968 9.60933 108.751 10.008C108.535 10.4067 108.426 10.8747 108.426 11.412C108.426 11.958 108.535 12.4347 108.751 12.842C108.968 13.2407 109.258 13.5483 109.622 13.765C109.986 13.973 110.389 14.077 110.831 14.077C111.273 14.077 111.676 13.973 112.04 13.765C112.413 13.5483 112.708 13.2407 112.924 12.842C113.141 12.4347 113.249 11.9623 113.249 11.425ZM117.627 5.38V15H116.444V5.38H117.627ZM125.78 7.876L121.49 18.354H120.268L121.672 14.922L118.799 7.876H120.112L122.348 13.648L124.558 7.876H125.78Z" fill="#979797"/>
<defs>
<clipPath id="clip0_27663_537">
<rect width="16" height="16" fill="white" transform="translate(0 2)"/>
</clipPath>
</defs>
</svg>
