<svg width="228" height="20" viewBox="0 0 228 20" fill="none" xmlns="http://www.w3.org/2000/svg">
<g clip-path="url(#clip0_27663_388)">
<path d="M8 15.9334L11.3 12.6334C11.9526 11.9808 12.397 11.1493 12.577 10.244C12.7571 9.33879 12.6646 8.40051 12.3114 7.54781C11.9582 6.69512 11.36 5.96632 10.5926 5.45356C9.82519 4.9408 8.92296 4.66711 8 4.66711C7.07704 4.66711 6.17481 4.9408 5.40739 5.45356C4.63997 5.96632 4.04183 6.69512 3.68861 7.54781C3.33539 8.40051 3.24294 9.33879 3.42297 10.244C3.603 11.1493 4.04741 11.9808 4.7 12.6334L8 15.9334ZM8 17.8188L3.75734 13.5761C2.91823 12.737 2.34679 11.6679 2.11529 10.504C1.88378 9.34013 2.0026 8.13373 2.45673 7.03738C2.91086 5.94103 3.6799 5.00396 4.66659 4.34467C5.65328 3.68539 6.81332 3.3335 8 3.3335C9.18669 3.3335 10.3467 3.68539 11.3334 4.34467C12.3201 5.00396 13.0891 5.94103 13.5433 7.03738C13.9974 8.13373 14.1162 9.34013 13.8847 10.504C13.6532 11.6679 13.0818 12.737 12.2427 13.5761L8 17.8188ZM8 10.6668C8.35362 10.6668 8.69276 10.5263 8.94281 10.2763C9.19286 10.0262 9.33334 9.68707 9.33334 9.33344C9.33334 8.97982 9.19286 8.64068 8.94281 8.39064C8.69276 8.14059 8.35362 8.00011 8 8.00011C7.64638 8.00011 7.30724 8.14059 7.05719 8.39064C6.80715 8.64068 6.66667 8.97982 6.66667 9.33344C6.66667 9.68707 6.80715 10.0262 7.05719 10.2763C7.30724 10.5263 7.64638 10.6668 8 10.6668ZM8 12.0001C7.29276 12.0001 6.61448 11.7192 6.11438 11.2191C5.61429 10.719 5.33334 10.0407 5.33334 9.33344C5.33334 8.6262 5.61429 7.94792 6.11438 7.44783C6.61448 6.94773 7.29276 6.66678 8 6.66678C8.70725 6.66678 9.38552 6.94773 9.88562 7.44783C10.3857 7.94792 10.6667 8.6262 10.6667 9.33344C10.6667 10.0407 10.3857 10.719 9.88562 11.2191C9.38552 11.7192 8.70725 12.0001 8 12.0001Z" fill="#979797"/>
</g>
<path d="M22.184 14.038H25.356V15H21.001V5.939H22.184V14.038ZM29.7193 15.117C29.052 15.117 28.4453 14.9653 27.8993 14.662C27.362 14.3587 26.9373 13.9297 26.6253 13.375C26.322 12.8117 26.1703 12.1617 26.1703 11.425C26.1703 10.697 26.3263 10.0557 26.6383 9.501C26.959 8.93767 27.3923 8.50867 27.9383 8.214C28.4843 7.91067 29.0953 7.759 29.7713 7.759C30.4473 7.759 31.0583 7.91067 31.6043 8.214C32.1503 8.50867 32.5793 8.93333 32.8913 9.488C33.212 10.0427 33.3723 10.6883 33.3723 11.425C33.3723 12.1617 33.2077 12.8117 32.8783 13.375C32.5577 13.9297 32.12 14.3587 31.5653 14.662C31.0107 14.9653 30.3953 15.117 29.7193 15.117ZM29.7193 14.077C30.144 14.077 30.5427 13.9773 30.9153 13.778C31.288 13.5787 31.587 13.2797 31.8123 12.881C32.0463 12.4823 32.1633 11.997 32.1633 11.425C32.1633 10.853 32.0507 10.3677 31.8253 9.969C31.6 9.57033 31.3053 9.27567 30.9413 9.085C30.5773 8.88567 30.183 8.786 29.7583 8.786C29.325 8.786 28.9263 8.88567 28.5623 9.085C28.207 9.27567 27.921 9.57033 27.7043 9.969C27.4877 10.3677 27.3793 10.853 27.3793 11.425C27.3793 12.0057 27.4833 12.4953 27.6913 12.894C27.908 13.2927 28.194 13.5917 28.5493 13.791C28.9047 13.9817 29.2947 14.077 29.7193 14.077ZM37.4498 15.117C36.9038 15.117 36.4141 15.026 35.9808 14.844C35.5474 14.6533 35.2051 14.3933 34.9538 14.064C34.7024 13.726 34.5638 13.3403 34.5378 12.907H35.7598C35.7944 13.2623 35.9591 13.5527 36.2538 13.778C36.5571 14.0033 36.9514 14.116 37.4368 14.116C37.8874 14.116 38.2428 14.0163 38.5028 13.817C38.7628 13.6177 38.8928 13.3663 38.8928 13.063C38.8928 12.751 38.7541 12.5213 38.4768 12.374C38.1994 12.218 37.7704 12.0663 37.1898 11.919C36.6611 11.7803 36.2278 11.6417 35.8898 11.503C35.5604 11.3557 35.2744 11.1433 35.0318 10.866C34.7978 10.58 34.6808 10.2073 34.6808 9.748C34.6808 9.384 34.7891 9.05033 35.0058 8.747C35.2224 8.44367 35.5301 8.20533 35.9288 8.032C36.3274 7.85 36.7824 7.759 37.2938 7.759C38.0824 7.759 38.7194 7.95833 39.2048 8.357C39.6901 8.75567 39.9501 9.30167 39.9848 9.995H38.8018C38.7758 9.62233 38.6241 9.32333 38.3468 9.098C38.0781 8.87267 37.7141 8.76 37.2548 8.76C36.8301 8.76 36.4921 8.851 36.2408 9.033C35.9894 9.215 35.8638 9.45333 35.8638 9.748C35.8638 9.982 35.9374 10.177 36.0848 10.333C36.2408 10.4803 36.4314 10.6017 36.6568 10.697C36.8908 10.7837 37.2114 10.8833 37.6188 10.996C38.1301 11.1347 38.5461 11.2733 38.8668 11.412C39.1874 11.542 39.4604 11.7413 39.6858 12.01C39.9198 12.2787 40.0411 12.6297 40.0498 13.063C40.0498 13.453 39.9414 13.804 39.7248 14.116C39.5081 14.428 39.2004 14.675 38.8018 14.857C38.4118 15.0303 37.9611 15.117 37.4498 15.117ZM50.5416 12.985H46.5896L45.8616 15H44.6136L47.8896 5.991H49.2546L52.5176 15H51.2696L50.5416 12.985ZM50.2036 12.023L48.5656 7.447L46.9276 12.023H50.2036ZM57.4163 7.746C58.283 7.746 58.985 8.01033 59.5223 8.539C60.0597 9.059 60.3283 9.813 60.3283 10.801V15H59.1583V10.97C59.1583 10.2593 58.9807 9.71767 58.6253 9.345C58.27 8.96367 57.7847 8.773 57.1693 8.773C56.5453 8.773 56.047 8.968 55.6743 9.358C55.3103 9.748 55.1283 10.3157 55.1283 11.061V15H53.9453V7.876H55.1283V8.89C55.3623 8.526 55.6787 8.24433 56.0773 8.045C56.4847 7.84567 56.931 7.746 57.4163 7.746ZM65.1988 7.759C65.8141 7.759 66.3514 7.89333 66.8108 8.162C67.2788 8.43067 67.6254 8.76867 67.8508 9.176V7.876H69.0468V15.156C69.0468 15.806 68.9081 16.3823 68.6308 16.885C68.3534 17.3963 67.9548 17.795 67.4348 18.081C66.9234 18.367 66.3254 18.51 65.6408 18.51C64.7048 18.51 63.9248 18.289 63.3008 17.847C62.6768 17.405 62.3084 16.8027 62.1958 16.04H63.3658C63.4958 16.4733 63.7644 16.82 64.1718 17.08C64.5791 17.3487 65.0688 17.483 65.6408 17.483C66.2908 17.483 66.8194 17.2793 67.2268 16.872C67.6428 16.4647 67.8508 15.8927 67.8508 15.156V13.661C67.6168 14.077 67.2701 14.4237 66.8108 14.701C66.3514 14.9783 65.8141 15.117 65.1988 15.117C64.5661 15.117 63.9898 14.961 63.4698 14.649C62.9584 14.337 62.5554 13.8993 62.2608 13.336C61.9661 12.7727 61.8188 12.1313 61.8188 11.412C61.8188 10.684 61.9661 10.047 62.2608 9.501C62.5554 8.94633 62.9584 8.51733 63.4698 8.214C63.9898 7.91067 64.5661 7.759 65.1988 7.759ZM67.8508 11.425C67.8508 10.8877 67.7424 10.4197 67.5258 10.021C67.3091 9.62233 67.0144 9.319 66.6418 9.111C66.2778 8.89433 65.8748 8.786 65.4328 8.786C64.9908 8.786 64.5878 8.89 64.2238 9.098C63.8598 9.306 63.5694 9.60933 63.3528 10.008C63.1361 10.4067 63.0278 10.8747 63.0278 11.412C63.0278 11.958 63.1361 12.4347 63.3528 12.842C63.5694 13.2407 63.8598 13.5483 64.2238 13.765C64.5878 13.973 64.9908 14.077 65.4328 14.077C65.8748 14.077 66.2778 13.973 66.6418 13.765C67.0144 13.5483 67.3091 13.2407 67.5258 12.842C67.7424 12.4347 67.8508 11.9623 67.8508 11.425ZM77.5459 11.165C77.5459 11.3903 77.5329 11.6287 77.5069 11.88H71.8129C71.8563 12.582 72.0946 13.1323 72.5279 13.531C72.9699 13.921 73.5029 14.116 74.1269 14.116C74.6383 14.116 75.0629 13.999 75.4009 13.765C75.7476 13.5223 75.9903 13.2017 76.1289 12.803H77.4029C77.2123 13.4877 76.8309 14.0467 76.2589 14.48C75.6869 14.9047 74.9763 15.117 74.1269 15.117C73.4509 15.117 72.8443 14.9653 72.3069 14.662C71.7783 14.3587 71.3623 13.9297 71.0589 13.375C70.7556 12.8117 70.6039 12.1617 70.6039 11.425C70.6039 10.6883 70.7513 10.0427 71.0459 9.488C71.3406 8.93333 71.7523 8.50867 72.2809 8.214C72.8183 7.91067 73.4336 7.759 74.1269 7.759C74.8029 7.759 75.4009 7.90633 75.9209 8.201C76.4409 8.49567 76.8396 8.903 77.1169 9.423C77.4029 9.93433 77.5459 10.515 77.5459 11.165ZM76.3239 10.918C76.3239 10.4673 76.2243 10.0817 76.0249 9.761C75.8256 9.43167 75.5526 9.18467 75.2059 9.02C74.8679 8.84667 74.4909 8.76 74.0749 8.76C73.4769 8.76 72.9656 8.95067 72.5409 9.332C72.1249 9.71333 71.8866 10.242 71.8259 10.918H76.3239ZM80.2904 5.38V15H79.1074V5.38H80.2904ZM88.8067 11.165C88.8067 11.3903 88.7937 11.6287 88.7677 11.88H83.0737C83.117 12.582 83.3553 13.1323 83.7887 13.531C84.2307 13.921 84.7637 14.116 85.3877 14.116C85.899 14.116 86.3237 13.999 86.6617 13.765C87.0083 13.5223 87.251 13.2017 87.3897 12.803H88.6637C88.473 13.4877 88.0917 14.0467 87.5197 14.48C86.9477 14.9047 86.237 15.117 85.3877 15.117C84.7117 15.117 84.105 14.9653 83.5677 14.662C83.039 14.3587 82.623 13.9297 82.3197 13.375C82.0163 12.8117 81.8647 12.1617 81.8647 11.425C81.8647 10.6883 82.012 10.0427 82.3067 9.488C82.6013 8.93333 83.013 8.50867 83.5417 8.214C84.079 7.91067 84.6943 7.759 85.3877 7.759C86.0637 7.759 86.6617 7.90633 87.1817 8.201C87.7017 8.49567 88.1003 8.903 88.3777 9.423C88.6637 9.93433 88.8067 10.515 88.8067 11.165ZM87.5847 10.918C87.5847 10.4673 87.485 10.0817 87.2857 9.761C87.0863 9.43167 86.8133 9.18467 86.4667 9.02C86.1287 8.84667 85.7517 8.76 85.3357 8.76C84.7377 8.76 84.2263 8.95067 83.8017 9.332C83.3857 9.71333 83.1473 10.242 83.0867 10.918H87.5847ZM92.8902 15.117C92.3442 15.117 91.8545 15.026 91.4212 14.844C90.9879 14.6533 90.6455 14.3933 90.3942 14.064C90.1429 13.726 90.0042 13.3403 89.9782 12.907H91.2002C91.2349 13.2623 91.3995 13.5527 91.6942 13.778C91.9975 14.0033 92.3919 14.116 92.8772 14.116C93.3279 14.116 93.6832 14.0163 93.9432 13.817C94.2032 13.6177 94.3332 13.3663 94.3332 13.063C94.3332 12.751 94.1945 12.5213 93.9172 12.374C93.6399 12.218 93.2109 12.0663 92.6302 11.919C92.1015 11.7803 91.6682 11.6417 91.3302 11.503C91.0009 11.3557 90.7149 11.1433 90.4722 10.866C90.2382 10.58 90.1212 10.2073 90.1212 9.748C90.1212 9.384 90.2295 9.05033 90.4462 8.747C90.6629 8.44367 90.9705 8.20533 91.3692 8.032C91.7679 7.85 92.2229 7.759 92.7342 7.759C93.5229 7.759 94.1599 7.95833 94.6452 8.357C95.1305 8.75567 95.3905 9.30167 95.4252 9.995H94.2422C94.2162 9.62233 94.0645 9.32333 93.7872 9.098C93.5185 8.87267 93.1545 8.76 92.6952 8.76C92.2705 8.76 91.9325 8.851 91.6812 9.033C91.4299 9.215 91.3042 9.45333 91.3042 9.748C91.3042 9.982 91.3779 10.177 91.5252 10.333C91.6812 10.4803 91.8719 10.6017 92.0972 10.697C92.3312 10.7837 92.6519 10.8833 93.0592 10.996C93.5705 11.1347 93.9865 11.2733 94.3072 11.412C94.6279 11.542 94.9009 11.7413 95.1262 12.01C95.3602 12.2787 95.4815 12.6297 95.4902 13.063C95.4902 13.453 95.3819 13.804 95.1652 14.116C94.9485 14.428 94.6409 14.675 94.2422 14.857C93.8522 15.0303 93.4015 15.117 92.8902 15.117ZM98.3822 13.362L96.9262 16.859H96.1332L97.0822 13.362H98.3822ZM104.36 5.939V11.672C104.36 12.478 104.555 13.076 104.945 13.466C105.344 13.856 105.894 14.051 106.596 14.051C107.289 14.051 107.831 13.856 108.221 13.466C108.62 13.076 108.819 12.478 108.819 11.672V5.939H110.002V11.659C110.002 12.413 109.85 13.05 109.547 13.57C109.244 14.0813 108.832 14.4627 108.312 14.714C107.801 14.9653 107.224 15.091 106.583 15.091C105.942 15.091 105.361 14.9653 104.841 14.714C104.33 14.4627 103.922 14.0813 103.619 13.57C103.324 13.05 103.177 12.413 103.177 11.659V5.939H104.36ZM115.447 7.746C116.313 7.746 117.015 8.01033 117.553 8.539C118.09 9.059 118.359 9.813 118.359 10.801V15H117.189V10.97C117.189 10.2593 117.011 9.71767 116.656 9.345C116.3 8.96367 115.815 8.773 115.2 8.773C114.576 8.773 114.077 8.968 113.705 9.358C113.341 9.748 113.159 10.3157 113.159 11.061V15H111.976V7.876H113.159V8.89C113.393 8.526 113.709 8.24433 114.108 8.045C114.515 7.84567 114.961 7.746 115.447 7.746ZM120.902 6.719C120.677 6.719 120.486 6.641 120.33 6.485C120.174 6.329 120.096 6.13833 120.096 5.913C120.096 5.68767 120.174 5.497 120.33 5.341C120.486 5.185 120.677 5.107 120.902 5.107C121.119 5.107 121.301 5.185 121.448 5.341C121.604 5.497 121.682 5.68767 121.682 5.913C121.682 6.13833 121.604 6.329 121.448 6.485C121.301 6.641 121.119 6.719 120.902 6.719ZM121.474 7.876V15H120.291V7.876H121.474ZM124.933 8.851V13.05C124.933 13.3967 125.007 13.6437 125.154 13.791C125.302 13.9297 125.557 13.999 125.921 13.999H126.792V15H125.726C125.068 15 124.574 14.8483 124.244 14.545C123.915 14.2417 123.75 13.7433 123.75 13.05V8.851H122.827V7.876H123.75V6.082H124.933V7.876H126.792V8.851H124.933ZM134.726 11.165C134.726 11.3903 134.713 11.6287 134.687 11.88H128.993C129.036 12.582 129.274 13.1323 129.708 13.531C130.15 13.921 130.683 14.116 131.307 14.116C131.818 14.116 132.243 13.999 132.581 13.765C132.927 13.5223 133.17 13.2017 133.309 12.803H134.583C134.392 13.4877 134.011 14.0467 133.439 14.48C132.867 14.9047 132.156 15.117 131.307 15.117C130.631 15.117 130.024 14.9653 129.487 14.662C128.958 14.3587 128.542 13.9297 128.239 13.375C127.935 12.8117 127.784 12.1617 127.784 11.425C127.784 10.6883 127.931 10.0427 128.226 9.488C128.52 8.93333 128.932 8.50867 129.461 8.214C129.998 7.91067 130.613 7.759 131.307 7.759C131.983 7.759 132.581 7.90633 133.101 8.201C133.621 8.49567 134.019 8.903 134.297 9.423C134.583 9.93433 134.726 10.515 134.726 11.165ZM133.504 10.918C133.504 10.4673 133.404 10.0817 133.205 9.761C133.005 9.43167 132.732 9.18467 132.386 9.02C132.048 8.84667 131.671 8.76 131.255 8.76C130.657 8.76 130.145 8.95067 129.721 9.332C129.305 9.71333 129.066 10.242 129.006 10.918H133.504ZM135.845 11.412C135.845 10.684 135.992 10.047 136.287 9.501C136.582 8.94633 136.985 8.51733 137.496 8.214C138.016 7.91067 138.597 7.759 139.238 7.759C139.793 7.759 140.308 7.889 140.785 8.149C141.262 8.40033 141.626 8.734 141.877 9.15V5.38H143.073V15H141.877V13.661C141.643 14.0857 141.296 14.4367 140.837 14.714C140.378 14.9827 139.84 15.117 139.225 15.117C138.592 15.117 138.016 14.961 137.496 14.649C136.985 14.337 136.582 13.8993 136.287 13.336C135.992 12.7727 135.845 12.1313 135.845 11.412ZM141.877 11.425C141.877 10.8877 141.769 10.4197 141.552 10.021C141.335 9.62233 141.041 9.319 140.668 9.111C140.304 8.89433 139.901 8.786 139.459 8.786C139.017 8.786 138.614 8.89 138.25 9.098C137.886 9.306 137.596 9.60933 137.379 10.008C137.162 10.4067 137.054 10.8747 137.054 11.412C137.054 11.958 137.162 12.4347 137.379 12.842C137.596 13.2407 137.886 13.5483 138.25 13.765C138.614 13.973 139.017 14.077 139.459 14.077C139.901 14.077 140.304 13.973 140.668 13.765C141.041 13.5483 141.335 13.2407 141.552 12.842C141.769 12.4347 141.877 11.9623 141.877 11.425ZM151.411 15.091C150.813 15.091 150.276 14.987 149.799 14.779C149.331 14.5623 148.963 14.2677 148.694 13.895C148.425 13.5137 148.287 13.076 148.278 12.582H149.539C149.582 13.0067 149.756 13.3663 150.059 13.661C150.371 13.947 150.822 14.09 151.411 14.09C151.974 14.09 152.416 13.9513 152.737 13.674C153.066 13.388 153.231 13.024 153.231 12.582C153.231 12.2353 153.136 11.9537 152.945 11.737C152.754 11.5203 152.516 11.3557 152.23 11.243C151.944 11.1303 151.558 11.009 151.073 10.879C150.475 10.723 149.994 10.567 149.63 10.411C149.275 10.255 148.967 10.0123 148.707 9.683C148.456 9.345 148.33 8.89433 148.33 8.331C148.33 7.837 148.456 7.39933 148.707 7.018C148.958 6.63667 149.309 6.342 149.76 6.134C150.219 5.926 150.744 5.822 151.333 5.822C152.182 5.822 152.876 6.03433 153.413 6.459C153.959 6.88367 154.267 7.447 154.336 8.149H153.036C152.993 7.80233 152.811 7.499 152.49 7.239C152.169 6.97033 151.745 6.836 151.216 6.836C150.722 6.836 150.319 6.966 150.007 7.226C149.695 7.47733 149.539 7.83267 149.539 8.292C149.539 8.62133 149.63 8.89 149.812 9.098C150.003 9.306 150.232 9.46633 150.501 9.579C150.778 9.683 151.164 9.80433 151.658 9.943C152.256 10.1077 152.737 10.2723 153.101 10.437C153.465 10.593 153.777 10.84 154.037 11.178C154.297 11.5073 154.427 11.958 154.427 12.53C154.427 12.972 154.31 13.388 154.076 13.778C153.842 14.168 153.495 14.4843 153.036 14.727C152.577 14.9697 152.035 15.091 151.411 15.091ZM157.611 8.851V13.05C157.611 13.3967 157.685 13.6437 157.832 13.791C157.979 13.9297 158.235 13.999 158.599 13.999H159.47V15H158.404C157.745 15 157.251 14.8483 156.922 14.545C156.593 14.2417 156.428 13.7433 156.428 13.05V8.851H155.505V7.876H156.428V6.082H157.611V7.876H159.47V8.851H157.611ZM160.461 11.412C160.461 10.684 160.609 10.047 160.903 9.501C161.198 8.94633 161.601 8.51733 162.112 8.214C162.632 7.91067 163.209 7.759 163.841 7.759C164.465 7.759 165.007 7.89333 165.466 8.162C165.926 8.43067 166.268 8.76867 166.493 9.176V7.876H167.689V15H166.493V13.674C166.259 14.09 165.908 14.4367 165.44 14.714C164.981 14.9827 164.444 15.117 163.828 15.117C163.196 15.117 162.624 14.961 162.112 14.649C161.601 14.337 161.198 13.8993 160.903 13.336C160.609 12.7727 160.461 12.1313 160.461 11.412ZM166.493 11.425C166.493 10.8877 166.385 10.4197 166.168 10.021C165.952 9.62233 165.657 9.319 165.284 9.111C164.92 8.89433 164.517 8.786 164.075 8.786C163.633 8.786 163.23 8.89 162.866 9.098C162.502 9.306 162.212 9.60933 161.995 10.008C161.779 10.4067 161.67 10.8747 161.67 11.412C161.67 11.958 161.779 12.4347 161.995 12.842C162.212 13.2407 162.502 13.5483 162.866 13.765C163.23 13.973 163.633 14.077 164.075 14.077C164.517 14.077 164.92 13.973 165.284 13.765C165.657 13.5483 165.952 13.2407 166.168 12.842C166.385 12.4347 166.493 11.9623 166.493 11.425ZM171.132 8.851V13.05C171.132 13.3967 171.205 13.6437 171.353 13.791C171.5 13.9297 171.756 13.999 172.119 13.999H172.991V15H171.925C171.266 15 170.772 14.8483 170.443 14.545C170.113 14.2417 169.949 13.7433 169.949 13.05V8.851H169.026V7.876H169.949V6.082H171.132V7.876H172.991V8.851H171.132ZM180.924 11.165C180.924 11.3903 180.911 11.6287 180.885 11.88H175.191C175.234 12.582 175.473 13.1323 175.906 13.531C176.348 13.921 176.881 14.116 177.505 14.116C178.016 14.116 178.441 13.999 178.779 13.765C179.126 13.5223 179.368 13.2017 179.507 12.803H180.781C180.59 13.4877 180.209 14.0467 179.637 14.48C179.065 14.9047 178.354 15.117 177.505 15.117C176.829 15.117 176.222 14.9653 175.685 14.662C175.156 14.3587 174.74 13.9297 174.437 13.375C174.134 12.8117 173.982 12.1617 173.982 11.425C173.982 10.6883 174.129 10.0427 174.424 9.488C174.719 8.93333 175.13 8.50867 175.659 8.214C176.196 7.91067 176.812 7.759 177.505 7.759C178.181 7.759 178.779 7.90633 179.299 8.201C179.819 8.49567 180.218 8.903 180.495 9.423C180.781 9.93433 180.924 10.515 180.924 11.165ZM179.702 10.918C179.702 10.4673 179.602 10.0817 179.403 9.761C179.204 9.43167 178.931 9.18467 178.584 9.02C178.246 8.84667 177.869 8.76 177.453 8.76C176.855 8.76 176.344 8.95067 175.919 9.332C175.503 9.71333 175.265 10.242 175.204 10.918H179.702ZM185.007 15.117C184.461 15.117 183.972 15.026 183.538 14.844C183.105 14.6533 182.763 14.3933 182.511 14.064C182.26 13.726 182.121 13.3403 182.095 12.907H183.317C183.352 13.2623 183.517 13.5527 183.811 13.778C184.115 14.0033 184.509 14.116 184.994 14.116C185.445 14.116 185.8 14.0163 186.06 13.817C186.32 13.6177 186.45 13.3663 186.45 13.063C186.45 12.751 186.312 12.5213 186.034 12.374C185.757 12.218 185.328 12.0663 184.747 11.919C184.219 11.7803 183.785 11.6417 183.447 11.503C183.118 11.3557 182.832 11.1433 182.589 10.866C182.355 10.58 182.238 10.2073 182.238 9.748C182.238 9.384 182.347 9.05033 182.563 8.747C182.78 8.44367 183.088 8.20533 183.486 8.032C183.885 7.85 184.34 7.759 184.851 7.759C185.64 7.759 186.277 7.95833 186.762 8.357C187.248 8.75567 187.508 9.30167 187.542 9.995H186.359C186.333 9.62233 186.182 9.32333 185.904 9.098C185.636 8.87267 185.272 8.76 184.812 8.76C184.388 8.76 184.05 8.851 183.798 9.033C183.547 9.215 183.421 9.45333 183.421 9.748C183.421 9.982 183.495 10.177 183.642 10.333C183.798 10.4803 183.989 10.6017 184.214 10.697C184.448 10.7837 184.769 10.8833 185.176 10.996C185.688 11.1347 186.104 11.2733 186.424 11.412C186.745 11.542 187.018 11.7413 187.243 12.01C187.477 12.2787 187.599 12.6297 187.607 13.063C187.607 13.453 187.499 13.804 187.282 14.116C187.066 14.428 186.758 14.675 186.359 14.857C185.969 15.0303 185.519 15.117 185.007 15.117Z" fill="#979797"/>
<defs>
<clipPath id="clip0_27663_388">
<rect width="16" height="16" fill="white" transform="translate(0 2)"/>
</clipPath>
</defs>
</svg>
