<svg width="88" height="36" viewBox="0 0 314 98" fill="black" xmlns="http://www.w3.org/2000/svg">
<path d="M261.75 22.1742C260.514 21.76 260.502 21.0911 261.774 20.665L306.994 5.52033C308.248 5.10136 308.966 5.80599 308.615 7.03908L295.693 52.4731C295.338 53.7324 294.615 53.7752 294.085 52.5802L285.57 33.3268L299.785 14.2829L280.832 28.5658L261.75 22.1742V22.1742Z" fill="#5243C2"/>
<path d="M0.17058 70.9032C2.10383 69.3606 2.98516 68.6465 2.81458 68.7608C8.38687 64.1331 12.7651 60.3338 15.9493 57.363C19.1903 54.3921 21.9196 51.2785 24.1371 48.0219C26.3547 44.7654 27.4634 41.5946 27.4634 38.5095C27.4634 36.1671 26.9233 34.3389 25.8429 33.0249C24.7626 31.7108 23.1421 31.0538 20.9814 31.0538C18.8207 31.0538 17.1149 31.8822 15.864 33.5391C14.6699 35.1387 14.0729 37.424 14.0729 40.3949H0C0.11372 35.5387 1.1372 31.4823 3.07045 28.2258C5.06055 24.9693 7.64769 22.5698 10.8319 21.0272C14.0729 19.4846 17.6551 18.7134 21.5784 18.7134C28.3448 18.7134 33.4338 20.4559 36.8454 23.9409C40.3138 27.426 42.0481 31.9679 42.0481 37.5668C42.0481 43.6799 39.9727 49.3645 35.8219 54.6207C31.6711 59.8197 26.3831 64.9044 19.9579 69.8748H42.9863V81.7868H0.17058V70.9032Z" fill="black"/>
<path d="M65.4422 42.7944C67.148 40.1663 69.2803 38.1096 71.839 36.6242C74.3977 35.0816 77.2407 34.3103 80.368 34.3103V49.8216H76.3594C72.7203 49.8216 69.991 50.6214 68.1715 52.2211C66.352 53.7637 65.4422 56.506 65.4422 60.4481V82.6438H50.8576V34.8245H65.4422V42.7944Z" fill="black"/>
<path d="M94.6741 29.8541C92.1154 29.8541 90.0116 29.1113 88.3626 27.6259C86.7706 26.0834 85.9745 24.198 85.9745 21.9699C85.9745 19.6846 86.7706 17.7993 88.3626 16.3138C90.0116 14.7713 92.1154 14 94.6741 14C97.176 14 99.2229 14.7713 100.815 16.3138C102.464 17.7993 103.288 19.6846 103.288 21.9699C103.288 24.198 102.464 26.0834 100.815 27.6259C99.2229 29.1113 97.176 29.8541 94.6741 29.8541ZM101.924 34.8245V82.6438H87.3392V34.8245H101.924Z" fill="black"/>
<path d="M131.854 83.3294C127.703 83.3294 124.007 82.6152 120.766 81.1869C117.525 79.7586 114.967 77.8161 113.09 75.3595C111.214 72.8457 110.162 70.0462 109.934 66.9611H124.348C124.519 68.6179 125.287 69.9605 126.651 70.9889C128.016 72.0173 129.693 72.5315 131.683 72.5315C133.503 72.5315 134.896 72.1887 135.863 71.5031C136.886 70.7604 137.398 69.8177 137.398 68.6751C137.398 67.3039 136.687 66.3041 135.266 65.6756C133.844 64.9901 131.541 64.2474 128.357 63.4475C124.945 62.6477 122.102 61.8193 119.828 60.9623C117.554 60.0482 115.592 58.6484 113.943 56.7631C112.294 54.8206 111.47 52.2211 111.47 48.9646C111.47 46.2223 112.209 43.7371 113.687 41.5089C115.222 39.2237 117.44 37.424 120.34 36.11C123.297 34.7959 126.793 34.1389 130.83 34.1389C136.801 34.1389 141.492 35.6244 144.903 38.5952C148.372 41.5661 150.362 45.5082 150.874 50.4215H137.398C137.17 48.7647 136.431 47.4506 135.18 46.4794C133.986 45.5082 132.394 45.0225 130.404 45.0225C128.698 45.0225 127.39 45.3653 126.481 46.0509C125.571 46.6794 125.116 47.5649 125.116 48.7075C125.116 50.0787 125.827 51.1071 127.248 51.7926C128.727 52.4782 131.001 53.1638 134.072 53.8494C137.597 54.7635 140.468 55.6776 142.686 56.5917C144.903 57.4487 146.837 58.877 148.486 60.8766C150.191 62.8191 151.073 65.4471 151.13 68.7608C151.13 71.5602 150.334 74.074 148.741 76.3022C147.206 78.4732 144.96 80.1871 142.004 81.444C139.104 82.7009 135.72 83.3294 131.854 83.3294Z" fill="black"/>
<path d="M220.779 34.3103C226.692 34.3103 231.383 36.11 234.852 39.7093C238.377 43.3086 240.14 48.3076 240.14 54.7064V82.6438H225.641V56.6774C225.641 53.5923 224.816 51.2213 223.167 49.5645C221.575 47.8506 219.357 46.9936 216.514 46.9936C213.671 46.9936 211.426 47.8506 209.777 49.5645C208.184 51.2213 207.388 53.5923 207.388 56.6774V82.6438H192.889V56.6774C192.889 53.5923 192.065 51.2213 190.416 49.5645C188.824 47.8506 186.606 46.9936 183.763 46.9936C180.92 46.9936 178.674 47.8506 177.025 49.5645C175.433 51.2213 174.637 53.5923 174.637 56.6774V82.6438H160.052V34.8245H174.637V40.8233C176.115 38.8237 178.049 37.2526 180.437 36.11C182.825 34.9102 185.526 34.3103 188.539 34.3103C192.121 34.3103 195.306 35.0816 198.092 36.6242C200.935 38.1667 203.152 40.3663 204.744 43.2229C206.393 40.5948 208.639 38.4524 211.482 36.7956C214.325 35.1387 217.424 34.3103 220.779 34.3103Z" fill="black"/>
</svg>
